<?xml version="1.0" encoding="UTF-8"?>
<!-- Created with Inkscape (http://www.inkscape.org/) -->
<svg width="63.5mm" height="26.523mm" version="1.1" viewBox="0 0 63.5 26.523" xmlns="http://www.w3.org/2000/svg" xmlns:cc="http://creativecommons.org/ns#" xmlns:dc="http://purl.org/dc/elements/1.1/" xmlns:rdf="http://www.w3.org/1999/02/22-rdf-syntax-ns#">
 <metadata>
  <rdf:RDF>
   <cc:Work rdf:about="">
    <dc:format>image/svg+xml</dc:format>
    <dc:type rdf:resource="http://purl.org/dc/dcmitype/StillImage"/>
    <dc:title/>
   </cc:Work>
  </rdf:RDF>
 </metadata>
 <g transform="translate(-15.119 -119.7)">
  <g transform="matrix(.035278 0 0 -.035278 -61.081 272.66)">
   <g fill="#271d14">
    <path d="m3238.8 4080c-39.47 0-68.86-19.38-68.86-66.02 0-35.15 19.37-59.54 66.73-59.54 40.15 0 67.41 23.65 67.41 60.99 0 42.31-24.39 64.57-65.28 64.57zm-78.91-329.32c-9.34-11.47-18.64-23.64-18.64-38.01 0-28.68 36.56-37.31 86.8-37.31 41.61 0 98.28 2.92 98.28 41.6 0 23-27.27 24.42-61.72 26.58zm212.34 327.15c12.9-16.51 26.55-39.46 26.55-72.46 0-79.63-62.42-126.25-152.78-126.25-22.98 0-43.79 2.86-56.69 6.44l-23.68-38.01 70.29-4.3c124.12-7.91 197.27-11.5 197.27-106.88 0-82.52-72.44-129.12-197.27-129.12-129.84 0-179.34 33-179.34 89.66 0 32.3 14.36 49.48 39.46 73.19-23.68 10.01-31.56 27.93-31.56 47.31 0 15.79 7.88 30.14 20.81 43.77 12.91 13.62 27.26 27.27 44.47 43.05-35.14 17.21-61.69 54.52-61.69 107.61 0 82.5 54.52 139.15 164.26 139.15 30.85 0 49.52-2.84 66.02-7.17h139.89v-60.96l-66.01-5.03"/>
    <path d="m3564.4 4208.2c-40.9 0-64.56 23.69-64.56 64.6 0 40.85 23.66 63.11 64.56 63.11 41.61 0 65.29-22.26 65.29-63.11 0-40.91-23.68-64.6-65.29-64.6zm-92.56-431.12v56.65l36.6 5.01c10.05 1.45 11.47 3.59 11.47 14.37v210.91c0 7.88-2.14 12.92-9.34 15.05l-38.73 13.65 7.89 58.08h148.51v-297.69c0-11.49 0.7-12.92 11.49-14.37l36.59-5.01v-56.65h-204.48"/>
    <path d="m3960 3804.9c-30.86-15.04-76.04-28.66-116.93-28.66-85.37 0-117.64 34.4-117.64 115.5v187.94c0 4.29 0 7.17-5.76 7.17h-50.21v63.85c63.15 7.19 88.24 38.76 96.13 116.95h68.16v-101.9c0-5 0-7.17 5.75-7.17h101.14v-71.73h-106.89v-171.44c0-42.33 10.06-58.81 48.77-58.81 20.12 0 40.9 5 58.12 11.46l19.36-63.07v-0.09"/>
   </g>
   <path d="m2897.1 3993.2-328.02 328c-18.87 18.89-49.51 18.89-68.41 0l-68.11-68.12 86.4-86.4c20.09 6.78 43.11 2.24 59.11-13.77 16.08-16.11 20.6-39.33 13.65-59.48l83.27-83.27c20.15 6.94 43.39 2.46 59.48-13.66 22.49-22.48 22.49-58.91 0-81.41-22.5-22.49-58.92-22.49-81.43 0-16.91 16.93-21.1 41.78-12.53 62.61l-77.66 77.66-0.01-204.36c5.49-2.71 10.66-6.34 15.23-10.89 22.49-22.48 22.49-58.91 0-81.42-22.49-22.48-58.94-22.48-81.41 0-22.48 22.51-22.48 58.94 0 81.42 5.56 5.55 11.99 9.75 18.85 12.57v206.25c-6.86 2.81-13.28 6.98-18.85 12.57-17.03 17.02-21.13 42.02-12.4 62.93l-85.16 85.19-224.92-224.9c-18.89-18.91-18.89-49.54 0-68.44l328.02-327.99c9.39-9.39 21.69-14.12 34.01-14.17h0.38c12.31 0.05 24.62 4.77 34.03 14.17l326.48 326.48c18.89 18.9 18.89 49.54 0 68.43" fill="#eb1c24"/>
  </g>
 </g>
</svg>
