<?xml version="1.0" standalone="no"?>
<!DOCTYPE svg PUBLIC "-//W3C//DTD SVG 20010904//EN"
 "http://www.w3.org/TR/2001/REC-SVG-20010904/DTD/svg10.dtd">
<svg version="1.0" xmlns="http://www.w3.org/2000/svg"
 width="1235.000000pt" height="1235.000000pt" viewBox="0 0 1235.000000 1235.000000"
 preserveAspectRatio="xMidYMid meet">
<metadata>
Created by potrace 1.14, written by Peter Selinger 2001-2017
</metadata>
<g transform="translate(0.000000,1235.000000) scale(0.100000,-0.100000)"
fill="#000000" stroke="none">
<path d="M5520 10028 c-359 -1107 -687 -2115 -728 -2240 l-73 -228 -2358 -2
-2357 -3 1907 -1384 1906 -1384 -28 -86 c-106 -318 -1428 -4395 -1426 -4397 1
-1 859 621 1907 1382 1047 761 1907 1384 1910 1384 3 -1 862 -624 1910 -1385
1048 -761 1906 -1382 1907 -1381 2 1 -325 1010 -726 2242 l-729 2239 24 20
c13 11 868 634 1902 1385 l1878 1365 -2353 3 -2352 2 -74 228 c-477 1475
-1383 4252 -1387 4252 -3 0 -300 -906 -660 -2012z"/>
</g>
</svg>
