<svg xmlns="http://www.w3.org/2000/svg" xmlns:svg="http://www.w3.org/2000/svg" id="svg19" width="365.858" height="389.262" version="1.1" viewBox="0 0 96.8 102.992"><defs id="defs5"><clipPath id="clipPath200"><path id="path2" d="m 1100,0 h 305 v 331 h -305 z"/></clipPath></defs><metadata id="metadata7"/><g id="g29" transform="translate(-0.26986255,-0.02739851)"><path id="path23" d="m 1.019953,355.64164 v -33.72376 l 8.1385268,-1.07961 C 29.586772,318.12835 41.331446,310.09572 49.739377,293.08343 60.267268,271.78169 62.968889,254.34269 63.034341,207.26424 63.080072,174.37137 62.531015,164.10673 60.12943,152.9568 55.908183,133.35865 49.635528,117.51886 43.048194,109.82304 35.919726,101.49503 22.436012,94.784264 10.318402,93.533617 L 1.019953,92.573932 V 46.338742 0.10355342 L 14.67754,1.2070519 c 41.563756,3.3582465 71.598141,16.1851721 94.33602,40.2885261 34.47052,36.540561 51.31782,90.689592 51.31782,164.940922 0,76.95331 -17.52709,131.9916 -53.6413,168.44358 L 92.33899,389.3654 H 46.679471 1.019953 Z" transform="scale(0.26458332)" style="fill:#ececec;stroke-width:1.65546513"/><path id="path25" d="M 264.23891,243.68447 V 98.003537 H 233.61281 202.9867 V 52.478245 6.9529536 h 81.94553 81.94552 V 198.15918 389.3654 h -51.31942 -51.31942 z" transform="scale(0.26458332)" style="fill:#ececec;stroke-width:1.65546513"/></g></svg>