<?xml version="1.0" encoding="UTF-8" standalone="no"?>
<!-- Created with Inkscape (http://www.inkscape.org/) -->

<svg
   xmlns:dc="http://purl.org/dc/elements/1.1/"
   xmlns:cc="http://creativecommons.org/ns#"
   xmlns:rdf="http://www.w3.org/1999/02/22-rdf-syntax-ns#"
   xmlns:svg="http://www.w3.org/2000/svg"
   xmlns="http://www.w3.org/2000/svg"
   xmlns:sodipodi="http://sodipodi.sourceforge.net/DTD/sodipodi-0.dtd"
   xmlns:inkscape="http://www.inkscape.org/namespaces/inkscape"
   width="96.799873mm"
   height="102.9922mm"
   version="1.1"
   viewBox="0 0 96.799874 102.99219"
   id="svg19"
   sodipodi:docname="01.svg"
   inkscape:version="0.92.4 5da689c313, 2019-01-14">
  <sodipodi:namedview
     pagecolor="#ffffff"
     bordercolor="#666666"
     borderopacity="1"
     objecttolerance="10"
     gridtolerance="10"
     guidetolerance="10"
     inkscape:pageopacity="0"
     inkscape:pageshadow="2"
     inkscape:window-width="1920"
     inkscape:window-height="1028"
     id="namedview21"
     showgrid="false"
     inkscape:zoom="0.60405983"
     inkscape:cx="179.45242"
     inkscape:cy="220.50795"
     inkscape:window-x="0"
     inkscape:window-y="26"
     inkscape:window-maximized="1"
     inkscape:current-layer="svg19" />
  <defs
     id="defs5">
    <clipPath
       id="clipPath200">
      <path
         d="m 1100,0 h 305 v 331 h -305 z"
         id="path2"
         inkscape:connector-curvature="0" />
    </clipPath>
  </defs>
  <metadata
     id="metadata7">
    <rdf:RDF>
      <cc:Work
         rdf:about="">
        <dc:format>image/svg+xml</dc:format>
        <dc:type
           rdf:resource="http://purl.org/dc/dcmitype/StillImage" />
        <dc:title />
      </cc:Work>
    </rdf:RDF>
  </metadata>
  <g
     id="g29"
     transform="translate(-0.26986255,-0.02739851)">
    <path
       transform="scale(0.26458332)"
       inkscape:connector-curvature="0"
       id="path23"
       d="m 1.019953,355.64164 v -33.72376 l 8.1385268,-1.07961 C 29.586772,318.12835 41.331446,310.09572 49.739377,293.08343 60.267268,271.78169 62.968889,254.34269 63.034341,207.26424 63.080072,174.37137 62.531015,164.10673 60.12943,152.9568 55.908183,133.35865 49.635528,117.51886 43.048194,109.82304 35.919726,101.49503 22.436012,94.784264 10.318402,93.533617 L 1.019953,92.573932 V 46.338742 0.10355342 L 14.67754,1.2070519 c 41.563756,3.3582465 71.598141,16.1851721 94.33602,40.2885261 34.47052,36.540561 51.31782,90.689592 51.31782,164.940922 0,76.95331 -17.52709,131.9916 -53.6413,168.44358 L 92.33899,389.3654 H 46.679471 1.019953 Z"
       style="fill:#ececec;stroke-width:1.65546513" />
    <path
       transform="scale(0.26458332)"
       inkscape:connector-curvature="0"
       id="path25"
       d="M 264.23891,243.68447 V 98.003537 H 233.61281 202.9867 V 52.478245 6.9529536 h 81.94553 81.94552 V 198.15918 389.3654 h -51.31942 -51.31942 z"
       style="fill:#ececec;stroke-width:1.65546513" />
  </g>
</svg>
