<svg xmlns="http://www.w3.org/2000/svg" xmlns:svg="http://www.w3.org/2000/svg" id="svg434" width="506.831" height="392.992" version="1.1" viewBox="0 0 134.099 103.979"><defs id="defs428"><clipPath id="clipPath318" clipPathUnits="userSpaceOnUse"><path id="path316" d="m 1100,0 h 396 v 331 h -396 z"/></clipPath><clipPath id="clipPath326" clipPathUnits="userSpaceOnUse"><path id="path324" d="M 960.069,352.071 H 1500.89 V -280.258 H 960.069 Z"/></clipPath></defs><metadata id="metadata431"/><g style="fill:#fff;fill-opacity:1" id="g314" clip-path="url(#clipPath318)" transform="matrix(0.35277777,0,0,-0.35277777,-388.05555,103.97917)"><g style="fill:#fff;fill-opacity:1" id="g320"><g style="fill:#fff;fill-opacity:1" id="g334"><g style="opacity:.94999701;fill:#fff;fill-opacity:1" id="g332" clip-path="url(#clipPath326)"><text id="text330" transform="matrix(1,0,0,-1,960.0693,-18.0669)" style="font-variant:normal;font-weight:700;font-stretch:normal;font-size:432.65701294px;font-family:Poppins;-inkscape-font-specification:Poppins-Bold;writing-mode:lr-tb;fill:#fff;fill-opacity:1;fill-rule:nonzero;stroke:none"><tspan id="tspan328" x="0 287.284" y="0" style="fill:#fff;fill-opacity:1">02</tspan></text></g></g></g></g><path style="opacity:0;fill:#ececec;stroke-width:.75595242;fill-opacity:.94999999" id="path527" d="M 0.20638596,96.810817 V 90.046864 L 9.2072092,83.186892 C 28.447354,68.523036 40.061883,56.643612 45.355714,46.213939 c 2.413396,-4.754769 2.892213,-6.506165 3.10597,-11.360915 0.221419,-5.028792 0.03141,-6.065843 -1.534398,-8.374377 -2.301389,-3.393035 -4.618961,-4.522452 -9.301258,-4.532757 -7.044748,-0.0155 -10.172144,3.267969 -11.751643,12.338126 l -0.876776,5.03481 H 12.738643 0.47967408 L 1.0967724,34.151921 C 3.0786073,17.558289 12.771178,5.8768658 27.855241,1.9027871 33.765307,0.34570896 46.781124,0.3552075 52.745076,1.9209376 68.068383,5.9438345 77.044491,20.645947 74.432972,37.443898 71.788107,54.456344 60.798821,68.469585 35.35817,87.271035 c -1.346893,0.9954 0.818878,1.121024 19.84375,1.151012 l 21.355656,0.03367 v 7.559524 7.559529 H 38.38198 0.20638596 Z"/><path style="opacity:0;fill:#ececec;stroke-width:.1889881;fill-opacity:.94999999" id="path529" d="M 0.0012889,96.844864 0.00261182,89.710562 0.70154837,89.238093 C 1.0859615,88.978235 3.7430264,87.017001 6.6061355,84.879797 17.314048,76.886737 24.470606,70.831708 31.377588,63.921141 40.716695,54.577177 45.926534,46.913158 47.955295,39.534225 c 0.443894,-1.614513 0.494948,-2.138097 0.506778,-5.197173 0.01159,-2.995737 -0.03782,-3.577722 -0.413917,-4.875739 -1.482101,-5.115197 -4.768167,-7.496418 -10.345002,-7.496418 -5.599827,0 -9.029279,2.564249 -10.733286,8.025431 -0.532482,1.706547 -1.021969,4.413113 -1.179171,6.52009 -0.05817,0.779574 -0.149558,1.77885 -0.203094,2.220609 l -0.09734,0.8032 H 12.857562 0.22486181 l 0.0872358,-1.181176 C 1.5622856,21.425843 7.9858979,10.610322 20.51898,4.3304715 26.848046,1.159218 34.403607,-0.2079687 43.134716,0.23813202 54.108445,0.79881585 61.799615,4.0022903 67.538777,10.402738 77.26609,21.250872 77.732432,39.147497 68.69014,54.588231 62.296005,65.506937 50.651394,77.222634 37.559962,85.908447 l -3.167005,2.101223 21.262613,0.04806 21.262614,0.04806 v 7.93669 7.9367 H 38.459077 -2.2665665e-6 Z"/></svg>