<svg xmlns="http://www.w3.org/2000/svg" xmlns:svg="http://www.w3.org/2000/svg" id="svg2" width="513.516" height="401.645" version="1.1" viewBox="0 0 513.516 401.645" xml:space="preserve"><metadata id="metadata8"/><defs id="defs6"><clipPath id="clipPath18" clipPathUnits="userSpaceOnUse"><path id="path16" d="M 0,0 H 2560 V 1440 H 0 Z"/></clipPath><clipPath id="clipPath32" clipPathUnits="userSpaceOnUse"><path id="path30" d="M 0,0 H 2560 V 1440 H 0 Z"/></clipPath><clipPath id="clipPath40" clipPathUnits="userSpaceOnUse"><path id="path38" d="M -126,1450 H 2614 V -22 H -126 Z"/></clipPath><clipPath id="clipPath54" clipPathUnits="userSpaceOnUse"><path id="path52" d="M -32,1702 H 2598 V -44 H -32 Z"/></clipPath><clipPath id="clipPath58" clipPathUnits="userSpaceOnUse"><path id="path56" d="M -32,1702 H 2598 V -44 H -32 Z"/></clipPath><clipPath id="clipPath62" clipPathUnits="userSpaceOnUse"><path id="path60" d="M -32768,32767 H 32767 V -32768 H -32768 Z"/></clipPath><linearGradient id="linearGradient68" x1="0" x2="1" y1="0" y2="0" gradientTransform="matrix(119.97655,-935.81274,-935.81274,-119.97655,1196.4409,1504.1558)" gradientUnits="userSpaceOnUse" spreadMethod="pad"><stop id="stop64" offset="0" style="stop-opacity:1;stop-color:#fff"/><stop id="stop66" offset="1" style="stop-opacity:.70000763;stop-color:#fff"/></linearGradient><mask id="mask70" width="1" height="1" x="0" y="0" maskUnits="userSpaceOnUse"><g id="g80"><g id="g78" clip-path="url(#clipPath62)"><g id="g76"><g id="g74"><path id="path72" d="M -32768,32767 H 32767 V -32768 H -32768 Z" style="fill:url(#linearGradient68);stroke:none"/></g></g></g></g></mask><linearGradient id="linearGradient86" x1="0" x2="1" y1="0" y2="0" gradientTransform="matrix(119.97655,-935.81274,-935.81274,-119.97655,1196.4409,1504.1558)" gradientUnits="userSpaceOnUse" spreadMethod="pad"><stop id="stop82" offset="0" style="stop-opacity:1;stop-color:#000045"/><stop id="stop84" offset="1" style="stop-opacity:1;stop-color:#516190"/></linearGradient><clipPath id="clipPath112" clipPathUnits="userSpaceOnUse"><path id="path110" d="M 0,1440 H 2560 V 0 H 0 Z"/></clipPath><clipPath id="clipPath164" clipPathUnits="userSpaceOnUse"><path id="path162" d="m 414.507,1235.555 c -3.696,-1.555 -11.358,-4.823 -24.49,-10.437 v 0 c -5.319,-2.268 -9.72,-4.137 -9.949,-4.137 v 0 -5.21 c 0.209,0.046 8.633,3.651 18.802,7.994 v 0 l 16.591,7.11 c 0.486,-0.553 1.096,-0.885 1.761,-0.885 v 0 c 1.602,0 2.897,1.856 2.897,4.154 v 0 c 0,2.297 -1.295,4.166 -2.897,4.166 v 0 c -1.257,0 -2.316,-1.153 -2.715,-2.755"/></clipPath><linearGradient id="linearGradient174" x1="0" x2="1" y1="0" y2="0" gradientTransform="matrix(-74.008987,-18.42247,-18.42247,74.008987,426.48193,1234.001)" gradientUnits="userSpaceOnUse" spreadMethod="pad"><stop id="stop170" offset="0" style="stop-opacity:1;stop-color:#00b4ef"/><stop id="stop172" offset="1" style="stop-opacity:1;stop-color:#515aa6"/></linearGradient><clipPath id="clipPath184" clipPathUnits="userSpaceOnUse"><path id="path182" d="m 422.168,1218.369 c -2.733,-1.056 -7.308,-3.019 -15.198,-6.393 v 0 c -9.845,-4.208 -19.994,-8.527 -22.557,-9.605 v 0 l -4.345,-1.944 v -4.987 c 0.6,0.079 33.439,14.039 42.977,18.232 v 0 c 0.458,-0.52 1.039,-0.857 1.687,-0.876 v 0 c 1.59,-0.046 2.945,1.773 3.022,4.071 v 0 c 0.066,2.297 -1.173,4.191 -2.772,4.241 v 0 c -0.02,10e-4 -0.039,10e-4 -0.058,10e-4 v 0 c -1.245,0 -2.323,-1.141 -2.756,-2.74"/></clipPath><linearGradient id="linearGradient194" x1="0" x2="1" y1="0" y2="0" gradientTransform="matrix(-74.012794,-18.423418,-18.423418,74.012794,431.10693,1215.4272)" gradientUnits="userSpaceOnUse" spreadMethod="pad"><stop id="stop190" offset="0" style="stop-opacity:1;stop-color:#00b4ef"/><stop id="stop192" offset="1" style="stop-opacity:1;stop-color:#515aa6"/></linearGradient><clipPath id="clipPath204" clipPathUnits="userSpaceOnUse"><path id="path202" d="m 404.311,1242.283 c -8.892,-3.812 -24.243,-10.514 -24.243,-10.514 v 0 -4.716 c 0.838,0.113 9.242,3.623 31.133,13.086 v 0 c 6.204,2.675 11.32,4.869 11.377,4.869 v 0 c 0.057,0 0.078,-3.651 0.039,-8.109 v 0 l -0.056,-8.122 -21.024,-8.976 c -11.559,-4.936 -21.26,-9.033 -21.469,-9.101 v 0 -5.095 c 0.477,0.112 44.549,18.982 45.799,19.599 v 0 c 1.714,0.855 1.656,0.411 1.656,13 v 0 11.224 l -0.666,0.667 c -0.361,0.364 -0.914,0.726 -1.23,0.802 v 0 c -0.072,0.018 -0.147,0.031 -0.241,0.031 v 0 c -0.856,0 -3.352,-1.045 -21.075,-8.645"/></clipPath><linearGradient id="linearGradient214" x1="0" x2="1" y1="0" y2="0" gradientTransform="matrix(-52.727238,-21.599321,-21.599321,52.727238,430.40527,1239.7275)" gradientUnits="userSpaceOnUse" spreadMethod="pad"><stop id="stop210" offset="0" style="stop-opacity:1;stop-color:#00b4ef"/><stop id="stop212" offset="1" style="stop-opacity:1;stop-color:#1b3e6e"/></linearGradient><clipPath id="clipPath224" clipPathUnits="userSpaceOnUse"><path id="path222" d="m 352.119,1257.872 c -19.144,-7.299 -18.632,-7.099 -19.348,-7.806 v 0 c -0.685,-0.685 -0.799,-1.447 -0.361,-2.41 v 0 c 0.374,-0.81 0.505,-0.868 25.444,-11.549 v 0 c 18.527,-7.93 21.48,-9.16 22.214,-9.054 v 0 4.716 c 0,0 -38.784,15.964 -39.271,16.155 v 0 c -0.478,0.199 -0.828,0.466 -0.783,0.609 v 0 c 0.077,0.23 39.825,15.486 39.825,15.486 v 0 l 1.212,-0.401 c 0.506,-0.171 18.381,-6.908 26.881,-10.083 v 0 c 0.029,-1.361 2.517,-2.467 5.586,-2.467 v 0 c 3.086,0 5.592,1.115 5.592,2.488 v 0 c 0,1.372 -2.506,2.478 -5.592,2.478 v 0 c -0.354,0 -0.708,-0.01 -1.049,-0.041 v 0 c -6.596,2.546 -18.326,6.996 -26.208,9.94 v 0 c -3.2,1.192 -6.097,2.164 -6.433,2.164 v 0 c -0.673,0 -7.213,-2.411 -27.709,-10.225"/></clipPath><linearGradient id="linearGradient234" x1="0" x2="1" y1="0" y2="0" gradientTransform="matrix(-52.095047,28.271051,28.271051,52.095047,392.9668,1241.5503)" gradientUnits="userSpaceOnUse" spreadMethod="pad"><stop id="stop230" offset="0" style="stop-opacity:1;stop-color:#00b4ef"/><stop id="stop232" offset="1" style="stop-opacity:1;stop-color:#1b3e6e"/></linearGradient><clipPath id="clipPath244" clipPathUnits="userSpaceOnUse"><path id="path242" d="m 331.496,1217.475 c 0,-2.257 1.325,-4.1 2.955,-4.1 v 0 c 0.57,0 1.106,0.24 1.554,0.63 v 0 c 3.334,-1.561 9.508,-4.184 20.964,-9.071 v 0 c 9.014,-3.847 17.744,-7.584 19.4,-8.288 v 0 c 2.051,-0.878 3.222,-1.26 3.699,-1.206 v 0 4.987 l -20.375,8.566 c -12.902,5.521 -19.201,8.207 -22.373,9.465 v 0 c -0.324,1.792 -1.477,3.124 -2.869,3.124 v 0 c -1.63,0 -2.955,-1.838 -2.955,-4.107"/></clipPath><linearGradient id="linearGradient254" x1="0" x2="1" y1="0" y2="0" gradientTransform="matrix(-28.351313,15.247727,15.247727,28.351313,346.39697,1212.5947)" gradientUnits="userSpaceOnUse" spreadMethod="pad"><stop id="stop250" offset="0" style="stop-opacity:1;stop-color:#00b4ef"/><stop id="stop252" offset="1" style="stop-opacity:1;stop-color:#2288c9"/></linearGradient><clipPath id="clipPath264" clipPathUnits="userSpaceOnUse"><path id="path262" d="m 331.629,1227.166 c 0,-2.158 1.267,-3.907 2.822,-3.907 v 0 c 0.684,0 1.296,0.341 1.78,0.908 v 0 c 8.568,-3.739 36.289,-15.642 40.588,-17.411 v 0 c 1.658,-0.688 3.057,-1.204 3.249,-1.151 v 0 5.095 c -0.219,-0.074 -9.779,3.916 -22.52,9.367 v 0 c -10.986,4.699 -17.305,7.347 -20.495,8.605 v 0 c -0.421,1.415 -1.432,2.404 -2.602,2.404 v 0 c -1.555,0 -2.822,-1.757 -2.822,-3.91"/></clipPath><linearGradient id="linearGradient274" x1="0" x2="1" y1="0" y2="0" gradientTransform="matrix(-52.094154,28.270567,28.270567,52.094154,374.48242,1207.4883)" gradientUnits="userSpaceOnUse" spreadMethod="pad"><stop id="stop270" offset="0" style="stop-opacity:1;stop-color:#00b4ef"/><stop id="stop272" offset="1" style="stop-opacity:1;stop-color:#1b3e6e"/></linearGradient><clipPath id="clipPath284" clipPathUnits="userSpaceOnUse"><path id="path282" d="m 331.457,1237.651 c 0,-2.297 1.338,-4.155 2.994,-4.155 v 0 c 0.684,0 1.315,0.333 1.819,0.877 v 0 c 3.718,-1.639 12.093,-5.274 21.395,-9.264 v 0 c 11.995,-5.157 22.069,-9.338 22.403,-9.338 v 0 5.21 c -0.449,0 -3.001,1.012 -27.025,11.258 v 0 c -8.664,3.697 -13.226,5.642 -15.745,6.631 v 0 c -0.38,1.695 -1.505,2.937 -2.847,2.937 v 0 c -1.656,0 -2.994,-1.859 -2.994,-4.156"/></clipPath><linearGradient id="linearGradient294" x1="0" x2="1" y1="0" y2="0" gradientTransform="matrix(-28.350035,15.247042,15.247042,28.350035,354.87988,1228.3667)" gradientUnits="userSpaceOnUse" spreadMethod="pad"><stop id="stop290" offset="0" style="stop-opacity:1;stop-color:#00b4ef"/><stop id="stop292" offset="1" style="stop-opacity:1;stop-color:#2288c9"/></linearGradient><clipPath id="clipPath304" clipPathUnits="userSpaceOnUse"><path id="path302" d="M 1322,0 H 2351.001 V 1047 H 1322 Z"/></clipPath><clipPath id="clipPath318" clipPathUnits="userSpaceOnUse"><path id="path316" d="m 1100,0 h 396.001 V 331 H 1100 Z"/></clipPath><clipPath id="clipPath326" clipPathUnits="userSpaceOnUse"><path id="path324" d="M 959.892,352.071 H 1517.58 V -280.258 H 959.892 Z"/></clipPath><clipPath id="clipPath360" clipPathUnits="userSpaceOnUse"><path id="path358" d="M 0,1440 H 2560 V 0 H 0 Z"/></clipPath><clipPath id="clipPath368" clipPathUnits="userSpaceOnUse"><path id="path366" d="m 2351,1440 h 209 V 0 h -209 z"/></clipPath></defs><g id="g10" transform="matrix(1.3333333,0,0,-1.3333333,-3529.3251,3741.6861)"><g id="g312" transform="translate(1546.9939,2505.0307)"><g id="g314" clip-path="url(#clipPath318)"><g id="g320"><g id="g334"><g style="opacity:.94999701" id="g332" clip-path="url(#clipPath326)"><text id="text330" transform="matrix(1,0,0,-1,959.8916,-18.0669)" style="font-variant:normal;font-weight:700;font-stretch:normal;font-size:432.65701294px;font-family:Poppins;-inkscape-font-specification:Poppins-Bold;writing-mode:lr-tb;fill:#fff;fill-opacity:1;fill-rule:nonzero;stroke:none"><tspan id="tspan328" x="0 287.284" y="0">03</tspan></text></g></g></g></g></g></g></svg>