<svg xmlns="http://www.w3.org/2000/svg" width="610.38mm" height="537.56mm" version="1.1" viewBox="0 0 610.38 537.56"><defs><clipPath id="clipPath1062"><path d="m1043.7 2736.1c0-11.272 6.568-20.392 14.694-20.392 3.355 0 6.452 1.634 8.924 4.308 18.247-8.052 59.353-25.891 105-45.472 58.867-25.306 108.31-45.818 109.95-45.818v25.563c-2.204 0-14.732 4.965-132.63 55.25-42.521 18.145-64.911 27.692-77.268 32.542-1.868 8.32-7.391 14.411-13.976 14.411-8.126 0-14.694-9.12-14.694-20.392"/></clipPath><linearGradient id="linearGradient1072" x2="1" gradientTransform="matrix(-139.13 74.827 74.827 139.13 1158.6 2690.5)" gradientUnits="userSpaceOnUse"><stop offset="0" stop-color="#00b4ef"/><stop offset="1" stop-color="#2288c9"/></linearGradient><clipPath id="clipPath1042"><path d="m1044.5 2684.6c0-10.592 6.22-19.17 13.849-19.17 3.355 0 6.361 1.668 8.738 4.452 42.047-18.356 178.09-76.763 199.19-85.448 8.134-3.378 15.006-5.914 15.945-5.656v25.009c-1.072-0.361-47.994 19.218-110.52 45.971-53.918 23.061-84.931 36.06-100.59 42.233-2.061 6.939-7.026 11.793-12.769 11.793-7.629 0-13.849-8.62-13.849-19.184"/></clipPath><linearGradient id="linearGradient1052" x2="1" gradientTransform="matrix(-255.66 138.74 138.74 255.66 1254.9 2588.1)" gradientUnits="userSpaceOnUse"><stop offset="0" stop-color="#00b4ef"/><stop offset="1" stop-color="#1b3e6e"/></linearGradient><clipPath id="clipPath1022"><path d="m1043.9 2637.1c0-11.075 6.505-20.119 14.502-20.119 2.8 0 5.426 1.173 7.626 3.09 16.362-7.663 46.661-20.535 102.88-44.517 44.241-18.884 87.083-37.22 95.211-40.671 10.064-4.314 15.811-6.187 18.154-5.925v24.477l-99.993 42.041c-63.321 27.093-94.233 40.273-109.8 46.446-1.592 8.798-7.25 15.336-14.082 15.336-7.997 0-14.502-9.025-14.502-20.158"/></clipPath><linearGradient id="linearGradient1032" x2="1" gradientTransform="matrix(-139.14 74.831 74.831 139.14 1117 2613.1)" gradientUnits="userSpaceOnUse"><stop offset="0" stop-color="#00b4ef"/><stop offset="1" stop-color="#2288c9"/></linearGradient><clipPath id="clipPath1002"><path d="m1145.1 2835.3c-93.954-35.819-91.438-34.831-94.951-38.306-3.365-3.361-3.92-7.104-1.773-11.833 1.836-3.969 2.476-4.256 124.87-56.678 90.921-38.911 105.41-44.955 109.02-44.428v23.143s-190.34 78.345-192.73 79.285c-2.349 0.977-4.065 2.282-3.844 2.991 0.378 1.121 195.45 75.997 195.45 75.997l5.947-1.97c2.481-0.834 90.206-33.904 131.92-49.48 0.14-6.69 12.351-12.106 27.41-12.106 15.145 0 27.448 5.473 27.448 12.203 0 6.733-12.303 12.163-27.448 12.163-1.735 0-3.469-0.049-5.147-0.197-32.369 12.495-89.933 34.329-128.62 48.775-15.707 5.857-29.922 10.625-31.569 10.625-3.308 0-35.4-11.834-135.99-50.184"/></clipPath><linearGradient id="linearGradient1012" x2="1" gradientTransform="matrix(-255.66 138.74 138.74 255.66 1345.6 2755.2)" gradientUnits="userSpaceOnUse"><stop offset="0" stop-color="#00b4ef"/><stop offset="1" stop-color="#1b3e6e"/></linearGradient><clipPath id="clipPath982"><path d="m1401.2 2758.8c-43.637-18.705-118.97-51.598-118.97-51.598v-23.143c4.113 0.556 45.357 17.781 152.79 64.221 30.442 13.132 55.555 23.897 55.833 23.897 0.283 0 0.384-17.916 0.192-39.799l-0.278-39.859-103.18-44.055c-56.726-24.217-104.34-44.326-105.36-44.662v-25.009c2.339 0.557 218.63 93.16 224.76 96.189 8.411 4.198 8.128 2.018 8.128 63.8v55.081l-3.269 3.283c-1.772 1.782-4.485 3.555-6.039 3.929-0.355 0.088-0.718 0.149-1.179 0.149-4.202 0-16.453-5.128-103.43-42.424"/></clipPath><linearGradient id="linearGradient992" x2="1" gradientTransform="matrix(-258.77 -106 -106 258.77 1529.3 2746.3)" gradientUnits="userSpaceOnUse"><stop offset="0" stop-color="#00b4ef"/><stop offset="1" stop-color="#1b3e6e"/></linearGradient><clipPath id="clipPath962"><path d="m1488.9 2641.5c-13.41-5.186-35.863-14.819-74.589-31.382-48.314-20.647-98.124-41.839-110.7-47.13l-21.322-9.543v-24.477c2.948 0.389 164.1 68.9 210.91 89.479 2.248-2.55 5.1-4.207 8.282-4.304 7.803-0.22 14.455 8.704 14.829 19.976 0.325 11.282-5.757 20.576-13.607 20.82h-0.285c-6.105 0-11.399-5.6-13.522-13.443"/></clipPath><linearGradient id="linearGradient972" x2="1" gradientTransform="matrix(-363.23 -90.416 -90.416 363.23 1532.7 2627)" gradientUnits="userSpaceOnUse"><stop offset="0" stop-color="#00b4ef"/><stop offset="1" stop-color="#515aa6"/></linearGradient><clipPath id="clipPath942"><path d="m1451.3 2725.8c-18.135-7.634-55.742-23.665-120.19-51.222-26.101-11.13-47.701-20.303-48.822-20.303v-25.563c1.026 0.22 42.368 17.91 92.273 39.228l81.422 34.894c2.382-2.721 5.377-4.342 8.641-4.342 7.865 0 14.219 9.107 14.219 20.383 0 11.268-6.354 20.445-14.219 20.445-6.169 0-11.364-5.66-13.324-13.52"/></clipPath><linearGradient id="linearGradient952" x2="1" gradientTransform="matrix(-363.21 -90.411 -90.411 363.21 1510 2718.2)" gradientUnits="userSpaceOnUse"><stop offset="0" stop-color="#00b4ef"/><stop offset="1" stop-color="#515aa6"/></linearGradient><clipPath id="clipPath914"><path d="m0 5839.8h2560v-5839.8h-2560z"/></clipPath><clipPath id="clipPath894"><path d="m0 5839.8h2560v-5839.8h-2560z"/></clipPath><clipPath id="clipPath848"><path d="m0 5839.8h2560v-5839.8h-2560z"/></clipPath><clipPath id="clipPath818"><path d="m0 5839.8h2560v-5839.8h-2560z"/></clipPath><clipPath id="clipPath800"><path d="m0 5839.8h2560v-5839.8h-2560z"/></clipPath><clipPath id="clipPath760"><path d="m555.77 2512.4 8.03-4.065 27.496 54.313 58.086-23.965 3.432 8.32-65.786 27.141z"/></clipPath><linearGradient id="linearGradient770" x2="1" gradientTransform="matrix(87.007 -303.03 -303.03 -87.007 559.16 2686.9)" gradientUnits="userSpaceOnUse"><stop offset="0" stop-color="#00b4ef"/><stop offset="1" stop-color="#1b3e6e"/></linearGradient><clipPath id="clipPath740"><path d="m1907.8 2548.8 34.578-62.189 62.877 28.875-3.757 8.179-55.304-25.398-30.528 54.905z"/></clipPath><linearGradient id="linearGradient750" x2="1" gradientTransform="matrix(87.007 396.03 396.03 -87.007 1917.1 2352.5)" gradientUnits="userSpaceOnUse"><stop offset="0" stop-color="#00b4ef"/><stop offset="1" stop-color="#1b3e6e"/></linearGradient><clipPath id="clipPath720"><path d="m745.24 3272.1 66.252-7.412-2.115-62.764 8.996-0.303 2.395 71.084-74.527 8.338z"/></clipPath><linearGradient id="linearGradient730" x2="1" gradientTransform="matrix(-156.02 -87.009 -87.009 156.02 1004 3365)" gradientUnits="userSpaceOnUse"><stop offset="0" stop-color="#00b4ef"/><stop offset="1" stop-color="#1b3e6e"/></linearGradient><clipPath id="clipPath700"><path d="m1744.9 3323.8 6.149-66.379-61.922-10.595 1.517-8.87 70.135 11.997-6.917 74.677z"/></clipPath><linearGradient id="linearGradient710" x2="1" gradientTransform="matrix(-306.03 234.02 234.02 306.03 1856.1 3179)" gradientUnits="userSpaceOnUse"><stop offset="0" stop-color="#00b4ef"/><stop offset="1" stop-color="#1b3e6e"/></linearGradient><clipPath id="clipPath680"><path d="m1278 2028.5c-114.58 0-222.84 27.548-318.53 76.363-1.886-2.519-3.825-4.997-5.807-7.431 15.379-7.863 31.077-15.186 47.085-21.959 87.814-37.141 181.1-55.974 277.25-55.974 96.152 0 189.43 18.833 277.25 55.974 25.815 10.919 50.811 23.3 74.964 37.049-3.169 1.75-6.329 3.514-9.482 5.292-101.46-56.868-218.38-89.314-342.73-89.314"/></clipPath><linearGradient id="linearGradient690" x2="1" gradientTransform="matrix(579.06 -27.003 -27.003 -579.06 1056.8 2086.5)" gradientUnits="userSpaceOnUse"><stop offset="0" stop-color="#00b4ef"/><stop offset="1" stop-color="#1b3e6e"/></linearGradient><clipPath id="clipPath660"><path d="m1000.7 3388c-84.817-35.875-160.99-87.23-226.4-152.64-36.153-36.153-68.004-75.598-95.328-117.97 2.327-2.165 4.641-4.344 6.928-6.551 94.881 147.65 243.43 257.68 417.9 302.29-0.574 3-1.109 6.008-1.597 9.021-34.516-8.767-68.401-20.146-101.5-34.147"/></clipPath><linearGradient id="linearGradient670" x2="1" gradientTransform="matrix(-156.02 -87.009 -87.009 156.02 1014 3347)" gradientUnits="userSpaceOnUse"><stop offset="0" stop-color="#00b4ef"/><stop offset="1" stop-color="#1b3e6e"/></linearGradient><clipPath id="clipPath640"><path d="m565.69 2732.3c-2e-3 -0.198-3e-3 -0.395-3e-3 -0.593 0-96.153 18.833-189.43 55.975-277.25 21.709-51.325 49.101-99.475 81.832-144 0.99 0.885 1.977 1.774 2.988 2.636 1.385 1.18 2.771 2.325 4.159 3.455-85.436 116.43-135.95 260-135.95 415.16 0 0.364 3e-3 0.727 6e-3 1.091-3.002-0.158-6.003-0.325-9.003-0.498"/></clipPath><linearGradient id="linearGradient650" x2="1" gradientTransform="matrix(87.009 -303.03 -303.03 -87.009 575.57 2691.6)" gradientUnits="userSpaceOnUse"><stop offset="0" stop-color="#00b4ef"/><stop offset="1" stop-color="#1b3e6e"/></linearGradient><clipPath id="clipPath620"><path d="m1979.5 2780.5c1.109-16.121 1.693-32.386 1.693-48.787 0-140.55-41.456-271.6-112.77-381.58 2.626-1.68 5.223-3.401 7.801-5.148 22.4 34.6 41.783 71.155 57.992 109.48 37.143 87.814 55.976 181.09 55.976 277.25 0 16.398-0.562 32.707-1.655 48.922-3.012-0.047-6.025-0.095-9.038-0.135"/></clipPath><linearGradient id="linearGradient630" x2="1" gradientTransform="matrix(87.009 396.04 396.04 -87.009 1897.5 2356.8)" gradientUnits="userSpaceOnUse"><stop offset="0" stop-color="#00b4ef"/><stop offset="1" stop-color="#1b3e6e"/></linearGradient><clipPath id="clipPath600"><path d="m1459.1 3411.3c159-42.433 296.01-139.32 389.72-269.39 2.479 1.895 4.965 3.781 7.464 5.648-22.374 31.047-47.311 60.368-74.732 87.789-65.413 65.413-141.58 116.77-226.4 152.64-31.432 13.295-63.567 24.229-96.28 32.809 0.073-3.167 0.149-6.333 0.224-9.5"/></clipPath><linearGradient id="linearGradient610" x2="1" gradientTransform="matrix(-306.03 234.02 234.02 306.03 1840.7 3158.8)" gradientUnits="userSpaceOnUse"><stop offset="0" stop-color="#00b4ef"/><stop offset="1" stop-color="#1b3e6e"/></linearGradient></defs><metadata/><g><g><g clip-path="url(#clipPath600)" transform="translate(227.33 194.03) matrix(.35278 0 0 -.35278 -369.26 1053.3)"><path fill="url(#linearGradient610)" d="m1459.1 3411.3c159-42.433 296.01-139.32 389.72-269.39 2.479 1.895 4.965 3.781 7.464 5.648-22.374 31.047-47.311 60.368-74.732 87.789-65.413 65.413-141.58 116.77-226.4 152.64-31.432 13.295-63.567 24.229-96.28 32.809 0.073-3.167 0.149-6.333 0.224-9.5"/></g></g><g><g clip-path="url(#clipPath620)" transform="translate(227.33 194.03) matrix(.35278 0 0 -.35278 -369.26 1053.3)"><path fill="url(#linearGradient630)" d="m1979.5 2780.5c1.109-16.121 1.693-32.386 1.693-48.787 0-140.55-41.456-271.6-112.77-381.58 2.626-1.68 5.223-3.401 7.801-5.148 22.4 34.6 41.783 71.155 57.992 109.48 37.143 87.814 55.976 181.09 55.976 277.25 0 16.398-0.562 32.707-1.655 48.922-3.012-0.047-6.025-0.095-9.038-0.135"/></g></g><g><g clip-path="url(#clipPath640)" transform="translate(227.33 194.03) matrix(.35278 0 0 -.35278 -369.26 1053.3)"><path fill="url(#linearGradient650)" d="m565.69 2732.3c-2e-3 -0.198-3e-3 -0.395-3e-3 -0.593 0-96.153 18.833-189.43 55.975-277.25 21.709-51.325 49.101-99.475 81.832-144 0.99 0.885 1.977 1.774 2.988 2.636 1.385 1.18 2.771 2.325 4.159 3.455-85.436 116.43-135.95 260-135.95 415.16 0 0.364 3e-3 0.727 6e-3 1.091-3.002-0.158-6.003-0.325-9.003-0.498"/></g></g><g><g clip-path="url(#clipPath660)" transform="translate(227.33 194.03) matrix(.35278 0 0 -.35278 -369.26 1053.3)"><path fill="url(#linearGradient670)" d="m1000.7 3388c-84.817-35.875-160.99-87.23-226.4-152.64-36.153-36.153-68.004-75.598-95.328-117.97 2.327-2.165 4.641-4.344 6.928-6.551 94.881 147.65 243.43 257.68 417.9 302.29-0.574 3-1.109 6.008-1.597 9.021-34.516-8.767-68.401-20.146-101.5-34.147"/></g></g><g><g clip-path="url(#clipPath680)" transform="translate(227.33 194.03) matrix(.35278 0 0 -.35278 -369.26 1053.3)"><path fill="url(#linearGradient690)" d="m1278 2028.5c-114.58 0-222.84 27.548-318.53 76.363-1.886-2.519-3.825-4.997-5.807-7.431 15.379-7.863 31.077-15.186 47.085-21.959 87.814-37.141 181.1-55.974 277.25-55.974 96.152 0 189.43 18.833 277.25 55.974 25.815 10.919 50.811 23.3 74.964 37.049-3.169 1.75-6.329 3.514-9.482 5.292-101.46-56.868-218.38-89.314-342.73-89.314"/></g></g><g><g clip-path="url(#clipPath700)" transform="translate(227.33 194.03) matrix(.35278 0 0 -.35278 -369.26 1053.3)"><path fill="url(#linearGradient710)" d="m1744.9 3323.8 6.149-66.379-61.922-10.595 1.517-8.87 70.135 11.997-6.917 74.677z"/></g></g><g><g clip-path="url(#clipPath720)" transform="translate(227.33 194.03) matrix(.35278 0 0 -.35278 -369.26 1053.3)"><path fill="url(#linearGradient730)" d="m745.24 3272.1 66.252-7.412-2.115-62.764 8.996-0.303 2.395 71.084-74.527 8.338z"/></g></g><g><g clip-path="url(#clipPath740)" transform="translate(227.33 194.03) matrix(.35278 0 0 -.35278 -369.26 1053.3)"><path fill="url(#linearGradient750)" d="m1907.8 2548.8 34.578-62.189 62.877 28.875-3.757 8.179-55.304-25.398-30.528 54.905z"/></g></g><g><g clip-path="url(#clipPath760)" transform="translate(227.33 194.03) matrix(.35278 0 0 -.35278 -369.26 1053.3)"><path fill="url(#linearGradient770)" d="m555.77 2512.4 8.03-4.065 27.496 54.313 58.086-23.965 3.432 8.32-65.786 27.141z"/></g></g><g><g clip-path="url(#clipPath800)" transform="translate(227.33 194.03) matrix(.35278 0 0 -.35278 -369.26 1053.3)"><g><path fill="#fff" d="m0 0h-25.297l-0.182 0.203c-5.86 19.229-23.455 67.675-32.46 86.86l-0.401 0.758 0.895 0.249c8.106 2.753 27.09 9.173 56.58 9.861l0.865-4e-3zm-51.438 2.749-0.482 0.643c-8.174 10.921-25.1 24.615-41.468 37.857-10.855 8.773-21.106 17.061-27.698 23.651-0.963 0.972-2.249 1.505-3.627 1.505-0.595 0-1.179-0.101-1.738-0.301-3.833-1.391-6.24-2.464-8.174-3.326l-0.236-0.105c-2.999-1.344-4.117-1.846-8.277-2.268-1.534-0.152-2.902-0.97-3.754-2.245-4.952-7.401-10.727-11.155-17.163-11.155-2.126 0-4.363 0.402-6.839 1.232-2.166 0.722-2.689 1.768-2.931 2.794-1.334 5.576 4.939 17.916 13.424 26.404 12.805 12.811 21.883 19.753 33.171 19.753 5.269 0 11.096-1.506 18.338-4.744 20.191-9.027 40.487-16.429 46.228-18.482l0.354-0.127 0.142-0.347c7.144-17.366 16.745-44.307 22.641-61.991l0.204-0.608zm-8.214-19.363c-1.647-1.414-3.758-2.26-5.645-2.26-0.967 0-1.846 0.227-2.545 0.656l-0.088 0.064c-4.823 3.905-25.096 24.743-35.142 35.214-0.978 1.024-2.294 1.586-3.706 1.586-1.329 0-2.587-0.507-3.544-1.431-0.992-0.946-1.553-2.22-1.584-3.587-0.031-1.373 0.476-2.676 1.426-3.667l0.086-0.089c5.884-6.129 25.722-26.714 33.93-34.195l0.379-0.346-0.133-0.497c-0.761-2.862-3.376-4.54-4.867-5.288-2.353-1.19-4.459-1.44-5.812-1.44-1.888 0-3.508 0.497-4.443 1.362-0.108 0.101-0.196 0.181-0.291 0.259-7.193 5.751-25.214 24.9-29.29 29.332-0.986 1.069-2.327 1.658-3.776 1.658-1.286 0-2.522-0.481-3.48-1.353-2.079-1.916-2.217-5.171-0.305-7.25l0.133-0.143c3.009-3.234 18.475-19.771 27.45-27.81l0.438-0.392-0.216-0.549c-1.24-3.123-3.804-5.694-6.857-6.879-2.954-1.123-5.626-0.697-7.726 1.219l-0.162 0.152c-8.55 7.206-26.008 25.789-29.421 29.442-0.969 1.036-2.339 1.632-3.759 1.632-1.304 0-2.544-0.492-3.491-1.382-2.063-1.932-2.174-5.184-0.247-7.255 3.544-3.795 15.826-16.857 25.091-25.585l1.291-1.217-1.759-0.235c-0.871-0.117-1.84-0.174-2.962-0.174-4.133 0-11.511 2.766-15.102 5.145-4.257 2.803-30.682 22.534-53.269 41.45-3.238 2.726-8.769 8.503-13.65 13.599-2.43 2.538-4.78 4.622-6.668 6.298-0.878 0.778-1.673 1.482-2.36 2.128l-0.382 0.359 0.152 0.502c4.828 15.935 12.125 40.753 16.15 62.161l0.129 1.42h39.325l-1.382-2.162c-9.043-9.365-18.681-24.569-16.08-35.562 1.129-4.74 4.394-8.212 9.705-9.963 3.321-1.096 6.619-1.746 9.801-1.746 9.24 0 17.658 4.645 24.344 13.52l0.207 0.253 0.339 0.039c3.606 0.551 5.577 1.435 8.563 2.778l0.19 0.084c0.297 0.133 0.605 0.272 0.93 0.422 0.927 0.422 1.978 0.901 3.279 1.429l0.5 0.203 0.395-0.371c6.736-6.325 15.805-13.653 25.406-21.412l0.448-0.363c17.578-14.215 37.502-30.327 42.053-39.795 2.543-5.296-0.549-8.735-1.996-9.968m-176.12 28.727-0.184-0.113h-29.044v97.562l1.192-0.071c19.518-1.523 40.96-5.639 48.635-9.369l0.611-0.265-0.037-0.356c-3.109-25.711-16.328-71.731-21.173-87.388m246.77 90.993c0 2.366-1.553 5.129-4.715 5.129-45.008 0-70.659-11.144-73.411-12.416-1.256-0.59-2.214-1.662-2.661-3.2-0.333-1.137-0.241-2.448 0.356-3.692l0.885-1.903-1.987 0.747c-2.411 0.915-5.096 1.886-7.933 2.917-7.982 2.901-17.033 6.187-26.278 10.326-7.974 3.563-15.028 5.297-21.563 5.297-9.426 0-17.914-2.262-28.377-10.299l-0.229 0.988h-49.06l0.146-0.193c0.2 1.324 0.372 2.811 0.51 4.477l0.098 0.867c0.141 1.655-0.521 3.426-1.576 4.414-8.158 7.731-39.01 12.055-62.953 13.474-0.106 5e-3 -0.224-0.028-0.344-0.028-1.402 0-3.45-0.419-4.388-1.308-1.077-1.008-2.52-2.349-2.52-3.651v-107.51c0-2.856 4.14-5.539 6.944-5.539h35.837c2.173 0 4.184 1.631 4.873 3.746 0.034 0.104 0.102 0.067 0.2 0.417 0.243 0.863 0.65 2.174 1.199 3.897l0.428 1.279 0.984-1.052c0.625-0.645 1.28-1.3 1.956-1.965 0.796-0.777 1.62-1.593 2.462-2.47 5.375-5.62 10.848-11.243 14.471-14.28 22.039-18.453 48.823-38.572 54.229-42.123 4.288-2.818 13.557-6.792 20.738-6.792 5.633 0 10.012 1.281 13.015 3.807l0.383 0.32 0.467-0.18c4.061-1.58 8.662-1.529 12.969 0.147 5.128 1.984 9.495 6.018 11.984 11.069l0.291 0.589 0.643-0.137c1.312-0.279 2.688-0.421 4.091-0.421 3.492 0 7.069 0.871 10.345 2.516 4.512 2.272 7.911 5.815 9.569 9.974l0.224 0.562 0.605-0.031c4.609-0.244 9.313 1.45 13.11 4.709 5.117 4.376 7.429 10.848 6.188 17.313l-0.105 0.547 10.869 7.302 0.337-1.084c0.434-1.396 0.806-2.914 1.136-4.252 0.176-0.72 0.336-0.901 0.475-1.409 0.605-2.195 2.62-3.998 4.944-3.998h35.837c3.272 0 4.302 4.503 4.302 5.594z" transform="translate(1412 3415.8)"/></g></g></g><text x="14.735" y="-107.231" fill="#fff" stroke-width=".353" font-family="'Poppins Medium'" font-size="14.817" font-weight="500" transform="translate(227.33 194.03)"><tspan x="14.735 24.188 34.041 42.161 46.191 56.163 65.675 73.795 81.914 85.678 94.642 100.85 110.658 120.956 124.986 134.498" y="-107.231">Business Problem</tspan> <tspan x="50.473 60.874 70.846 81.144 85.174 94.138 102.257 106.288" y="-90.858">Analysis</tspan></text><g><g clip-path="url(#clipPath818)" transform="translate(227.33 194.03) matrix(.35278 0 0 -.35278 -369.26 1053.3)"><path fill="#fff" d="m516.39 2890.4h-51.518v17.174h51.518zm-44.15 39.625-6.568 25.5c-0.434 2.166-0.302 4.41 0.38 6.512l22.984 70.638c0.294 1.095 1.014 2.026 1.998 2.583 0.985 0.564 2.152 0.706 3.242 0.398 0.476-0.123 0.92-0.336 1.314-0.626 1.512-1.017 2.203-2.88 1.716-4.635l-8.864-33.096c-4.589-2.069-7.532-6.643-7.512-11.678-0.017-1.125 0.126-2.251 0.427-3.334l7.771-29.03c0.296-1.101 1.014-2.036 2.001-2.607 0.987-0.57 2.158-0.724 3.259-0.429s2.038 1.016 2.609 2.003c0.567 0.984 0.72 2.157 0.427 3.256l-7.785 29.13c-0.09 0.331-0.131 0.671-0.122 1.011-0.017 1.809 1.132 3.421 2.845 3.995 0.097 0.034 0.505 0.171 0.571 0.183 2.341 0.463 4.617-1.047 5.1-3.381l13.366-38.893c0.464-1.345 0.698-2.76 0.698-4.182v-10.796c3e-3 -4.241-1.251-8.385-3.605-11.909l-2.984-4.478h-32.048v4.236c-4e-3 3.248-0.412 6.484-1.22 9.629m48.444-13.865h-4.886c3.187 4.871 4.884 10.564 4.886 16.387v10.796c3e-3 2.374-0.391 4.733-1.163 6.977l-13.279 38.608c-1.157 4.316-4.464 7.726-8.74 9.017l8.091 30.236c1.454 5.255-0.6 10.85-5.109 13.92-1.167 0.838-2.476 1.459-3.862 1.836-1.118 0.323-2.272 0.485-3.436 0.475-5.766 0.056-10.849-3.772-12.39-9.332l-22.907-70.408c-1.156-3.581-1.357-7.397-0.585-11.083l6.622-25.722c0.625-2.44 0.945-4.948 0.947-7.471v-4.236h-4.293c-2.371 0-4.294-1.922-4.294-4.295v-25.758c0-2.37 1.923-4.293 4.294-4.293h60.104c2.371 0 4.293 1.923 4.293 4.293v25.758c0 2.373-1.922 4.295-4.293 4.295"/><path fill="#fff" d="m653.77 2907.5h51.519v-17.174h-51.519zm42.933 12.822v-4.236h-32.048l-2.985 4.478c-2.354 3.524-3.609 7.668-3.606 11.909v10.796c0 1.422 0.235 2.837 0.699 4.182l13.365 38.893c0.485 2.334 2.758 3.844 5.102 3.381 0.064 0 0.471-0.149 0.57-0.183 1.713-0.574 2.862-2.186 2.846-3.995 8e-3 -0.34-0.035-0.68-0.124-1.011l-7.801-29.13c-0.615-2.29 0.743-4.646 3.036-5.259 2.289-0.614 4.645 0.745 5.257 3.036l7.773 29.03c0.299 1.083 0.444 2.209 0.428 3.334 0.023 5.033-2.912 9.605-7.497 11.678l-8.86 33.101c-0.486 1.754 0.207 3.62 1.716 4.631 0.395 0.295 0.842 0.507 1.314 0.629 1.093 0.306 2.258 0.163 3.246-0.397 0.983-0.557 1.701-1.488 1.998-2.582l22.981-70.64c0.685-2.102 0.815-4.344 0.382-6.512l-6.568-25.498c-0.811-3.148-1.222-6.384-1.224-9.635m-51.519-8.531v-25.758c0-2.37 1.924-4.293 4.294-4.293h60.105c2.37 0 4.292 1.923 4.292 4.293v25.758c0 2.373-1.922 4.295-4.292 4.295h-4.294v4.236c0 2.527 0.318 5.046 0.947 7.492l6.622 25.725c0.771 3.682 0.57 7.502-0.585 11.08l-22.907 70.387c-1.543 5.546-6.613 9.363-12.369 9.317-1.162 0.01-2.319-0.154-3.434-0.477-1.387-0.375-2.697-1-3.864-1.838-4.508-3.068-6.562-8.663-5.109-13.917l8.07-30.237c-4.277-1.292-7.583-4.7-8.74-9.015l-13.279-38.61c-0.769-2.238-1.163-4.592-1.163-6.96v-10.796c3e-3 -5.823 1.699-11.516 4.886-16.387h-4.886c-2.37 0-4.294-1.922-4.294-4.295"/><g><path fill="#fff" d="m0 0v80.984l60.104 26.297v-77.079zm-68.692 107.28 17.173-7.513v-24.56c0-1.627 0.92-3.114 2.373-3.845l17.172-8.585c1.334-0.665 2.913-0.591 4.18 0.191 1.265 0.781 2.034 2.166 2.034 3.654v21.895l17.173-7.512v-80.968l-60.105 30.578zm30.911-4.16 21.191 9.261 7.684-3.351-21.147-9.273zm-5.151-7.11 8.586-3.757v-18.688l-8.586 4.295zm38.638 43.203 57.98-25.366-57.98-25.369-15.068 6.593 22.927 10.035c1.563 0.682 2.572 2.227 2.572 3.932s-1.009 3.248-2.572 3.934l-18.422 8.031c-1.093 0.476-2.34 0.476-3.433 0l-30.185-13.193-13.778 6.037zm70.407-21.435-68.691 30.053c-1.092 0.477-2.339 0.477-3.432 0l-68.69-30.053c-1.566-0.681-2.579-2.226-2.579-3.931v-85.866c0-1.615 0.908-3.09 2.346-3.826l68.69-34.947c0.605-0.306 1.273-0.467 1.949-0.467 0.668 0 1.328 0.158 1.928 0.456l68.692 34.517c1.45 0.73 2.364 2.214 2.364 3.838v86.295c0 1.705-1.011 3.25-2.577 3.931" transform="translate(589.37 2991.2)"/></g><g><path fill="#fff" d="m0 0-17.203-8.645c-2.118-1.067-2.972-3.65-1.904-5.769 1.067-2.117 3.651-2.971 5.768-1.903l17.201 8.645c2.12 1.068 2.972 3.651 1.906 5.77-1.067 2.117-3.65 2.97-5.768 1.902" transform="translate(613.23 3022.5)"/></g><g><path fill="#fff" d="m0 0c0.667 0 1.327 0.156 1.923 0.455l16.957 8.521c2.119 1.066 2.971 3.649 1.906 5.766-1.067 2.119-3.65 2.973-5.769 1.906l-16.955-8.52c-1.774-0.899-2.705-2.896-2.244-4.83 0.461-1.935 2.191-3.301 4.182-3.298" transform="translate(597.96 3022.9)"/></g></g></g><text x="-228.78" y="63.796" fill="#fff" stroke-width=".353" font-family="'Poppins Medium'" font-size="14.817" font-weight="500" transform="translate(227.33 194.03)"><tspan x="-228.78 -219.816 -213.608 -203.799 -193.502 -183.649 -174.181 -168.195 -164.431 -153.452 -143.94 -133.642 -129.612 -119.803 -110.839 -107.076" y="63.796">Product Deploy &amp;</tspan> <tspan x="-196.583 -183.411 -173.114 -169.084 -159.112 -153.126 -142.829 -138.798" y="80.168">Maintain</tspan></text><g><g clip-path="url(#clipPath848)" transform="translate(227.33 194.03) matrix(.35278 0 0 -.35278 -369.26 1053.3)"><g><path fill="#fff" d="m0 0-13.156 1.877c-7.443 1.062-14.334-4.109-15.396-11.551-0.512-3.572 0.419-7.203 2.584-10.087l7.972-10.632-14.517-10.884-7.976 10.621c-4.51 6.015-13.042 7.234-19.055 2.724-2.886-2.164-4.797-5.386-5.308-8.96l-1.837-13.176-17.961 2.569 1.879 13.155c1.066 7.443-4.103 14.338-11.543 15.403-3.576 0.51-7.207-0.42-10.098-2.586l-10.63-7.973-10.887 14.521 10.624 7.973c6.013 4.512 7.234 13.042 2.726 19.054-2.165 2.89-5.39 4.796-8.964 5.307l-13.155 1.878 2.567 17.963 13.158-1.879c7.44-1.065 14.337 4.103 15.399 11.543 0.515 3.576-0.416 7.208-2.584 10.097l-7.998 10.639 14.517 10.886 7.974-10.627c4.51-6.015 13.04-7.236 19.054-2.727 2.888 2.166 4.799 5.392 5.311 8.965l1.878 13.157 17.961-2.565-1.879-13.156c-1.063-7.441 4.109-14.335 11.548-15.398 3.575-0.509 7.204 0.422 10.09 2.586l10.631 7.972 10.889-14.516-10.63-7.978c-6.014-4.51-7.233-13.04-2.723-19.052 2.165-2.887 5.387-4.798 8.962-5.311l13.154-1.876zm-185.16-67.97c-3.386-9.416-13.767-14.305-23.182-10.917-9.419 3.39-14.304 13.768-10.917 23.186 2.592 7.205 9.431 12.001 17.087 11.986h0.172c4.173-8.996 9.871-17.203 16.84-24.255m7.044-6.392c2.479-2.024 5.067-3.91 7.753-5.648 4.29-2.709 7.514-6.806 9.142-11.609l-9.729-9.714-9.425 6.497c-4.125 2.845-9.773 1.805-12.617-2.32-0.683-0.99-1.162-2.106-1.41-3.282l-2.377-11.327h-10.783l-2.377 11.31c-1.031 4.902-5.843 8.041-10.745 7.008-1.177-0.245-2.293-0.723-3.282-1.407l-9.429-6.479-8.263 8.249 6.491 9.419c2.845 4.125 1.808 9.774-2.315 12.62-0.988 0.684-2.105 1.166-3.284 1.412l-11.309 2.381v10.777l11.309 2.383c4.902 1.04 8.033 5.854 6.994 10.756-0.245 1.166-0.718 2.272-1.391 3.248l-6.495 9.447 8.263 8.248 9.435-6.499c4.126-2.837 9.776-1.795 12.618 2.33 0.679 0.991 1.156 2.103 1.403 3.281l0.794 3.773c0.727-5.228 1.931-10.375 3.598-15.385-14.928-1.778-25.584-15.322-23.807-30.25 1.781-14.927 15.323-25.587 30.251-23.806 8.987 1.072 16.853 6.54 20.987 14.587m36.119-78.233h36.294v-4.538c0-5.012-4.064-9.072-9.073-9.072h-18.147c-5.012 0-9.074 4.06-9.074 9.072zm0 18.146h36.294v-9.072h-36.294zm150.36 160.74-9e-3 9e-3 -17.647 2.52c-2.482 0.352-4.206 2.65-3.852 5.129 0.169 1.194 0.807 2.268 1.77 2.99l14.263 10.699c2.002 1.503 2.409 4.347 0.906 6.352l-16.333 21.775c-1.504 2.004-4.345 2.409-6.35 0.907l-14.26-10.697c-1.997-1.516-4.841-1.124-6.356 0.871-0.736 0.97-1.052 2.193-0.874 3.397l2.522 17.647c0.354 2.481-1.368 4.78-3.847 5.137h-6e-3l-26.929 3.845c-2.479 0.358-4.78-1.364-5.138-3.845l-2.52-17.648c-0.353-2.482-2.651-4.205-5.131-3.852-1.191 0.169-2.266 0.807-2.99 1.77l-10.692 14.264c-1.503 2.004-4.347 2.41-6.352 0.906l-13.631-10.232c-6.17 0.657-12.39 0.657-18.558 0-40.39-4.615-72.064-36.827-76-77.289-0.125-1.284-0.169-2.559-0.234-3.831h-1.359c-2.153-7e-3 -4.008-1.524-4.439-3.633l-3.134-14.904-12.558 8.659c-1.801 1.241-4.235 1.021-5.784-0.527l-13.609-13.61c-1.546-1.547-1.767-3.979-0.526-5.78l8.62-12.537-14.914-3.136c-2.085-0.453-3.571-2.302-3.565-4.438v-18.149c0-2.144 1.503-3.997 3.604-4.439l14.909-3.135-8.618-12.534c-1.241-1.804-1.019-4.233 0.526-5.781l13.609-13.611c1.548-1.546 3.982-1.769 5.787-0.522l12.535 8.642 3.133-14.915c0.432-2.109 2.283-3.626 4.436-3.63h18.146c2.149 0 4 1.503 4.443 3.602l3.134 14.91 12.535-8.618c1.802-1.238 4.232-1.017 5.781 0.525l7.046 7.068v-12.927c0.018-6.453 3.476-12.406 9.073-15.625v-25.205c0-10.025 8.123-18.144 18.147-18.144h18.147c10.022 0 18.147 8.119 18.147 18.144v25.205c5.594 3.219 9.051 9.172 9.073 15.625v17.955c0.121 7.555 4.073 14.533 10.491 18.521 3.766 2.441 7.336 5.173 10.68 8.166l-6.051 6.761c-2.992-2.682-6.189-5.127-9.559-7.311-9.007-5.654-14.522-15.5-14.634-26.137v-17.955c0-5.01-4.064-9.072-9.074-9.072h-36.294c-5.011 0-9.073 4.062-9.073 9.072v18.334c-0.106 10.432-5.534 20.09-14.392 25.604-35.957 22.592-46.79 70.06-24.196 106.02 14.018 22.309 38.482 35.89 64.831 35.983-0.068-0.162-0.127-0.326-0.176-0.496-0.169-1.19 0.143-2.401 0.867-3.361l10.691-14.26c1.129-1.459 1.236-3.462 0.273-5.035-0.928-1.58-2.72-2.442-4.537-2.18l-17.648 2.522c-2.481 0.354-4.778-1.367-5.133-3.847l-3e-3 -3e-3 -3.851-26.948c-0.355-2.476 1.367-4.777 3.848-5.133h3e-3l17.648-2.525c2.48-0.351 4.206-2.648 3.854-5.129-0.172-1.191-0.806-2.265-1.769-2.99l-14.259-10.691c-2.006-1.503-2.411-4.348-0.908-6.354l16.331-21.775c1.503-2.002 4.347-2.41 6.352-0.907l14.264 10.694c2.005 1.5 4.85 1.089 6.35-0.918 0.717-0.961 1.027-2.165 0.859-3.352l-2.52-17.648c-0.354-2.479 1.365-4.778 3.846-5.137h3e-3l26.945-3.85c0.213-0.027 0.428-0.04 0.642-0.04 2.26-2e-3 4.176 1.656 4.495 3.89l2.52 17.651c0.351 2.48 2.648 4.203 5.13 3.851 1.19-0.172 2.268-0.806 2.988-1.769l10.698-14.26c1.504-2.006 4.348-2.41 6.351-0.907l21.777 16.331c2.005 1.503 2.41 4.347 0.907 6.351l-10.692 14.259c-1.124 1.463-1.232 3.466-0.272 5.034 0.907 1.606 2.717 2.475 4.536 2.183l17.648-2.519c2.481-0.357 4.779 1.365 5.136 3.842v6e-3l3.846 26.943c0.357 2.483-1.364 4.782-3.846 5.137" transform="translate(2110.2 3049.2)"/></g><g><path fill="#fff" d="m0 0c-15.033 0-27.22 12.187-27.22 27.221 0 15.033 12.187 27.217 27.22 27.217 15.034 0 27.22-12.184 27.22-27.217-0.018-15.027-12.196-27.203-27.22-27.221m0 63.514c-20.043 0-36.294-16.246-36.294-36.293 0-20.043 16.251-36.295 36.294-36.295s36.293 16.252 36.293 36.295c-0.023 20.037-16.259 36.271-36.293 36.293" transform="translate(2044.1 3040.6)"/></g><path fill="#fff" d="m1981.8 2946.5h9.073v-13.61h-9.073z"/><g><path fill="#fff" d="m0 0c-28.006 10.941-41.841 42.512-30.897 70.517 4.237 10.851 11.846 20.058 21.706 26.261l-4.85 7.677c-29.678-18.696-38.584-57.913-19.884-87.592 7.238-11.491 17.975-20.364 30.631-25.308 11.2-4.291 18.599-15.042 18.602-27.036h9.073c0.012 15.736-9.685 29.849-24.381 35.481" transform="translate(1966.5 2991.1)"/></g><path fill="#fff" d="m2072.5 2978.3h31.757v-9.072h-31.757z"/><g><path fill="#fff" d="m0 0 5.808 6.972 27.223-22.682-5.81-6.971z" transform="translate(2065.1 2947.6)"/></g><path fill="#fff" d="m2045.3 2942h9.073v-31.757h-9.073z"/><g><path fill="#fff" d="m0 0 36.294 9.076 2.197-8.799-36.29-9.07z" transform="translate(1853.6 3068.9)"/></g><g><path fill="#fff" d="m0 0 5.271 7.382 31.754-22.683-5.271-7.378z" transform="translate(1861.2 3115.2)"/></g><g><path fill="#fff" d="m0 0 8.79 2.248 9.277-36.29-8.791-2.246z" transform="translate(1900.1 3145)"/></g></g></g><text x="281.546" y="63.796" fill="#fff" stroke-width=".353" font-family="'Poppins Medium'" font-size="14.817" font-weight="500" transform="translate(227.33 194.03)"><tspan x="281.546 289.828 299.34 308.808 318.78 322.543 331.404 341.212 345.243 355.096 361.082 365.112 374.92" y="63.796" stroke-width=".353">Tech Solution</tspan></text><g><g clip-path="url(#clipPath894)" transform="translate(227.33 194.03) matrix(.35278 0 0 -.35278 -369.26 1053.3)"><g><path fill="#fff" d="m0 0c-1.773 0-3.547-1.016-4.307-2.535l-15.715-27.879-35.738 61.842c-0.251 0.76-0.504 1.267-1.012 1.772l-5.574 9.888 1.771 0.759 20.785-10.138c1.521-0.76 3.04-1.014 4.561-1.014 3.548 0 7.098 1.773 8.87 5.069l11.405 20.531 15.208 2.784 34.725-61.079zm-86.174 43.088h-0.251l-11.155 21.035c-1.518 2.534-4.052 4.562-7.095 4.815l-23.319 4.31 3.296 23.315c0.505 3.043-0.507 6.337-2.534 8.367l-15.715 17.233 15.97 16.728c2.279 2.281 3.292 5.324 2.784 8.363l-2.784 23.064s0 0.255 0.25 0.509l23.065 4.056c2.789 0.506 5.577 2.281 7.099 5.069l11.405 20.527 20.781-10.137c2.79-1.519 6.337-1.519 9.125 0l21.036 9.633h0.254l11.152-21.039c1.52-2.535 4.055-4.562 6.844-4.815l23.065-4.561-3.297-23.32c-0.506-3.039 0.508-6.335 2.534-8.361l15.969-17.237-16.219-16.726c-2.284-2.283-3.298-5.322-2.79-8.365l2.79-23.317-22.812-3.801c-2.788-0.508-5.576-2.284-7.098-5.069l-11.405-20.53-20.782 10.138c-2.788 1.521-6.335 1.521-9.125 0zm-14.699-72.742-15.716 27.119c-1.013 1.519-2.535 2.535-4.307 2.535h-34.978l34.978 61.842 14.446-2.533 11.153-20.532c2.28-4.814 7.856-6.844 12.924-4.814h0.255l10.392 4.814 5.07-8.871zm148.78 27.119-37.513 65.899c3.802 1.773 6.083 5.828 5.832 10.389l-2.789 23.319 15.966 16.729c3.548 3.547 3.802 9.63 0.255 13.94l-15.967 17.233 3.294 23.573c0.507 5.068-3.043 10.138-8.113 11.151l-23.06 4.561-11.155 20.531c-2.28 4.815-7.854 6.845-12.924 4.815h-0.254l-21.29-9.884-20.784 10.137c-2.281 1.269-5.068 1.523-7.604 0.759-2.534-0.759-4.56-2.535-5.828-4.814l-11.405-20.531-23.066-4.052c-5.323-1.017-8.871-5.831-8.365-11.406l2.789-23.318-15.967-16.729c-3.548-3.548-3.801-9.631-0.254-13.941l15.966-17.232-3.293-23.573c-0.509-4.562 2.281-8.872 6.59-10.644l-37.764-66.912c-1.015-1.521-0.762-3.55 0-5.069 1.012-1.52 2.535-2.534 4.308-2.534h40.552l18.504-32.19c1.013-1.521 2.535-2.534 4.307-2.534 1.775 0 3.547 1.013 4.309 2.534l36.243 61.843 36.246-62.601c1.014-1.521 2.534-2.535 4.307-2.535 1.776 0 3.547 1.014 4.309 2.535l18.501 32.948h40.553c1.776 0 3.547 1.014 4.31 2.534 1.267 1.519 1.267 3.548 0.254 5.069" transform="translate(876.55 2130.1)"/></g><g><path fill="#fff" d="m0 0c-22.303 0-40.552 18.247-40.552 40.553 0 22.302 18.249 40.552 40.552 40.552 22.306 0 40.553-18.25 40.553-40.552 0-22.306-18.247-40.553-40.553-40.553m50.691 40.553c0 27.88-22.811 50.69-50.691 50.69s-50.69-22.81-50.69-50.69c0-27.879 22.81-50.692 50.69-50.692s50.691 22.813 50.691 50.692" transform="translate(815.97 2211.2)"/></g></g></g><text x="-141.006" y="339.62" fill="#fff" stroke-width=".353" font-family="'Poppins Medium'" font-size="14.817" font-weight="500" transform="translate(227.33 194.03)"><tspan x="-141.006 -132.042 -125.834 -116.025 -105.728 -95.875 -86.407 -80.421 -76.657 -64.656 -54.803 -44.505 -40.475 -36.445 -30.459" y="339.62" stroke-width=".353">Product Quality</tspan></text><g><g clip-path="url(#clipPath914)" transform="translate(227.33 194.03) matrix(.35278 0 0 -.35278 -369.26 1053.3)"><g><path fill="#fff" d="m0 0-7.498 4.329c-2.396 1.382-5.46 0.562-6.844-1.836-1.386-2.396-0.564-5.462 1.832-6.847l7.498-4.328-32.079-18.521v37.04l8.435-4.868c0.788-0.453 1.649-0.674 2.501-0.674 1.731 0 3.418 0.9 4.344 2.508 1.387 2.398 0.564 5.461-1.833 6.847l-8.434 4.87 32.078 18.518zm-42.103 39.157c-2.767 0-5.012-2.243-5.012-5.011v-6.948l-32.079 18.525 32.079 18.518v-10.124c0-2.765 2.245-5.013 5.012-5.013 2.768 0 5.012 2.248 5.012 5.013v10.124l32.079-18.518-32.079-18.525v6.948c0 2.768-2.244 5.011-5.012 5.011m-5.012-66.36-32.079 18.521 10.163 5.868c2.399 1.384 3.218 4.449 1.836 6.847-1.385 2.397-4.449 3.218-6.848 1.832l-10.163-5.865v37.038l32.079-18.518-6.127-3.538c-2.397-1.382-3.219-4.449-1.836-6.849 0.93-1.607 2.614-2.504 4.347-2.504 0.851 0 1.712 0.217 2.501 0.674l6.127 3.534zm54.633 77.266-47.115 27.204c-1.551 0.894-3.462 0.894-5.012 0l-47.115-27.204c-1.552-0.895-2.507-2.551-2.507-4.34v-54.405c0-1.791 0.955-3.447 2.507-4.343l47.115-27.202c0.776-0.446 1.64-0.669 2.506-0.669 0.867 0 1.73 0.223 2.506 0.669l47.115 27.202c1.551 0.896 2.507 2.552 2.507 4.343v54.405c0 1.789-0.956 3.445-2.507 4.34" transform="translate(1715.9 2223)"/></g><g><path fill="#fff" d="m0 0-51.627-29.807v59.976l10.189 5.859c2.399 1.382 3.227 4.443 1.847 6.845-1.38 2.398-4.441 3.226-6.844 1.847l-10.204-5.866-51.42 29.561 51.42 29.688 51.42-29.688-7.502-4.311c-2.402-1.383-3.226-4.444-1.848-6.846 0.925-1.612 2.615-2.516 4.351-2.516 0.846 0 1.704 0.215 2.493 0.67l7.725 4.441zm-61.652-29.807-51.625 29.807v59.853l51.625-29.684zm-60.982 100.82c-0.475-0.824-0.683-1.731-0.663-2.619 0-0.034-5e-3 -0.065-5e-3 -0.097v-39.618h-113.28v174.43h138.34v-10.025h-51.124c-2.768 0-5.013-2.245-5.013-5.013 0-2.767 2.245-5.009 5.013-5.009h51.124v-78.943c0-2.766 2.246-5.01 5.013-5.01s5.012 2.244 5.012 5.01v78.943h26.564v-23.559c0-2.768 2.246-5.014 5.013-5.014h7.018v-11.89c0-1.614 0.774-3.125 2.082-4.068l9.947-7.161v-5.449c0-0.971-0.786-1.756-1.754-1.756h-10.526c-6.494 0-11.78-5.284-11.78-11.778v-5.601l-57.87-33.411c-1.268-0.32-2.409-1.134-3.112-2.358m71.007 132.09h38.094v-38.595h-38.094zm26.064-57.942-7.017-5.051-7.017 5.051v9.322h14.034zm33.081-72.525-59.145 34.144v5.601c0 0.969 0.787 1.756 1.755 1.756h10.526c6.494 0 11.779 5.282 11.779 11.778v5.449l9.945 7.161c1.309 0.943 2.084 2.454 2.084 4.068v11.89h7.017c2.767 0 5.013 2.246 5.013 5.014v23.559h8.521c2.766 0 5.011 2.242 5.011 5.009 0 2.768-2.245 5.013-5.011 5.013h-8.521v15.038c0 2.768-2.246 5.011-5.013 5.011h-48.118c-2.767 0-5.013-2.243-5.013-5.011v-15.038h-26.564v15.038c0 2.768-2.245 5.011-5.012 5.011h-148.36c-2.767 0-5.012-2.243-5.012-5.011v-184.45c0-2.768 2.245-5.013 5.012-5.013h118.29v-21.546c0-1.79 0.956-3.445 2.506-4.339l61.651-35.596c0.776-0.444 1.639-0.67 2.506-0.67s1.731 0.226 2.507 0.67l61.65 35.596c1.552 0.894 2.506 2.549 2.506 4.339v71.19c0 1.79-0.954 3.445-2.506 4.341" transform="translate(1841.2 2125.7)"/></g><g><path fill="#fff" d="m0 0c-0.932 0.935-2.221 1.47-3.542 1.47-1.318 0-2.614-0.535-3.545-1.47-0.934-0.931-1.468-2.224-1.468-3.54 0-1.32 0.534-2.613 1.468-3.543 0.937-0.934 2.227-1.471 3.545-1.471 1.321 0 2.61 0.535 3.542 1.471 0.937 0.93 1.469 2.223 1.469 3.543 0 1.316-0.532 2.609-1.469 3.54" transform="translate(1817.1 2178.9)"/></g><g><path fill="#fff" d="m0 0c-0.932 0.935-2.225 1.47-3.543 1.47s-2.613-0.535-3.544-1.47c-0.933-0.933-1.467-2.223-1.467-3.543 0-1.317 0.534-2.609 1.467-3.543 0.931-0.935 2.226-1.467 3.544-1.467s2.611 0.532 3.543 1.467c0.937 0.934 1.469 2.226 1.469 3.543 0 1.32-0.532 2.61-1.469 3.543" transform="translate(1677.3 2317.3)"/></g></g></g><text x="181.124" y="340.446" fill="#fff" stroke-width=".353" font-family="'Poppins Medium'" font-size="14.817" font-weight="500" transform="translate(227.33 194.03)"><tspan x="181.124 190.088 196.297 206.105 216.403 226.256 235.724 241.71 245.473 256.452 265.965 274.084 278.114 288.412" y="340.446" stroke-width=".353">Product Design</tspan></text><g><g clip-path="url(#clipPath942)" transform="translate(227.33 194.03) matrix(.35278 0 0 -.35278 -369.26 1053.3)"><path fill="url(#linearGradient952)" d="m1451.3 2725.8c-18.135-7.634-55.742-23.665-120.19-51.222-26.101-11.13-47.701-20.303-48.822-20.303v-25.563c1.026 0.22 42.368 17.91 92.273 39.228l81.422 34.894c2.382-2.721 5.377-4.342 8.641-4.342 7.865 0 14.219 9.107 14.219 20.383 0 11.268-6.354 20.445-14.219 20.445-6.169 0-11.364-5.66-13.324-13.52"/></g></g><g><g clip-path="url(#clipPath962)" transform="translate(227.33 194.03) matrix(.35278 0 0 -.35278 -369.26 1053.3)"><path fill="url(#linearGradient972)" d="m1488.9 2641.5c-13.41-5.186-35.863-14.819-74.589-31.382-48.314-20.647-98.124-41.839-110.7-47.13l-21.322-9.543v-24.477c2.948 0.389 164.1 68.9 210.91 89.479 2.248-2.55 5.1-4.207 8.282-4.304 7.803-0.22 14.455 8.704 14.829 19.976 0.325 11.282-5.757 20.576-13.607 20.82h-0.285c-6.105 0-11.399-5.6-13.522-13.443"/></g></g><g><g clip-path="url(#clipPath982)" transform="translate(227.33 194.03) matrix(.35278 0 0 -.35278 -369.26 1053.3)"><path fill="url(#linearGradient992)" d="m1401.2 2758.8c-43.637-18.705-118.97-51.598-118.97-51.598v-23.143c4.113 0.556 45.357 17.781 152.79 64.221 30.442 13.132 55.555 23.897 55.833 23.897 0.283 0 0.384-17.916 0.192-39.799l-0.278-39.859-103.18-44.055c-56.726-24.217-104.34-44.326-105.36-44.662v-25.009c2.339 0.557 218.63 93.16 224.76 96.189 8.411 4.198 8.128 2.018 8.128 63.8v55.081l-3.269 3.283c-1.772 1.782-4.485 3.555-6.039 3.929-0.355 0.088-0.718 0.149-1.179 0.149-4.202 0-16.453-5.128-103.43-42.424"/></g></g><g><g clip-path="url(#clipPath1002)" transform="translate(227.33 194.03) matrix(.35278 0 0 -.35278 -369.26 1053.3)"><path fill="url(#linearGradient1012)" d="m1145.1 2835.3c-93.954-35.819-91.438-34.831-94.951-38.306-3.365-3.361-3.92-7.104-1.773-11.833 1.836-3.969 2.476-4.256 124.87-56.678 90.921-38.911 105.41-44.955 109.02-44.428v23.143s-190.34 78.345-192.73 79.285c-2.349 0.977-4.065 2.282-3.844 2.991 0.378 1.121 195.45 75.997 195.45 75.997l5.947-1.97c2.481-0.834 90.206-33.904 131.92-49.48 0.14-6.69 12.351-12.106 27.41-12.106 15.145 0 27.448 5.473 27.448 12.203 0 6.733-12.303 12.163-27.448 12.163-1.735 0-3.469-0.049-5.147-0.197-32.369 12.495-89.933 34.329-128.62 48.775-15.707 5.857-29.922 10.625-31.569 10.625-3.308 0-35.4-11.834-135.99-50.184"/></g></g><g><g clip-path="url(#clipPath1022)" transform="translate(227.33 194.03) matrix(.35278 0 0 -.35278 -369.26 1053.3)"><path fill="url(#linearGradient1032)" d="m1043.9 2637.1c0-11.075 6.505-20.119 14.502-20.119 2.8 0 5.426 1.173 7.626 3.09 16.362-7.663 46.661-20.535 102.88-44.517 44.241-18.884 87.083-37.22 95.211-40.671 10.064-4.314 15.811-6.187 18.154-5.925v24.477l-99.993 42.041c-63.321 27.093-94.233 40.273-109.8 46.446-1.592 8.798-7.25 15.336-14.082 15.336-7.997 0-14.502-9.025-14.502-20.158"/></g></g><g><g clip-path="url(#clipPath1042)" transform="translate(227.33 194.03) matrix(.35278 0 0 -.35278 -369.26 1053.3)"><path fill="url(#linearGradient1052)" d="m1044.5 2684.6c0-10.592 6.22-19.17 13.849-19.17 3.355 0 6.361 1.668 8.738 4.452 42.047-18.356 178.09-76.763 199.19-85.448 8.134-3.378 15.006-5.914 15.945-5.656v25.009c-1.072-0.361-47.994 19.218-110.52 45.971-53.918 23.061-84.931 36.06-100.59 42.233-2.061 6.939-7.026 11.793-12.769 11.793-7.629 0-13.849-8.62-13.849-19.184"/></g></g><g><g clip-path="url(#clipPath1062)" transform="translate(227.33 194.03) matrix(.35278 0 0 -.35278 -369.26 1053.3)"><path fill="url(#linearGradient1072)" d="m1043.7 2736.1c0-11.272 6.568-20.392 14.694-20.392 3.355 0 6.452 1.634 8.924 4.308 18.247-8.052 59.353-25.891 105-45.472 58.867-25.306 108.31-45.818 109.95-45.818v25.563c-2.204 0-14.732 4.965-132.63 55.25-42.521 18.145-64.911 27.692-77.268 32.542-1.868 8.32-7.391 14.411-13.976 14.411-8.126 0-14.694-9.12-14.694-20.392"/></g></g></g></svg>