<svg xmlns="http://www.w3.org/2000/svg" width="75.81mm" height="1147.88" version="1.1" viewBox="0 0 75.81 303.71"><defs><clipPath id="clipPath970"><path d="m63 1918.5v-103.32l-8.096-8.964 1.297-1.171 6.799 7.526v-159.18l-8.096-8.963 1.297-1.172 6.799 7.527v-159.18l-8.096-8.963 1.297-1.172 6.799 7.526v-159.18l-8.096-8.963 1.297-1.172 6.799 7.526v-79.693h67v2h-65v77.205l6.833-7.06 1.257 1.217-8.09 8.359v159.28l6.833-7.06 1.257 1.217-8.09 8.359v159.28l6.833-7.061 1.257 1.217-8.09 8.36v159.28l6.833-7.062 1.257 1.217-8.09 8.361v101.9h65v2z"/></clipPath><linearGradient id="linearGradient980" x2="1" gradientTransform="matrix(-612.42 2.7964 2.7964 612.42 226.73 1582.4)" gradientUnits="userSpaceOnUse"><stop offset="0" stop-color="#00b4ef"/><stop offset="1" stop-color="#1b3e6e"/></linearGradient><clipPath id="clipPath950"><path d="m179 1355.5v-32.655l-6.826 7.053-1.257-1.216 8.083-8.353v-22.829h2v22.234l8.104 8.97-1.299 1.172-6.805-7.533v33.157z"/></clipPath><linearGradient id="linearGradient960" x2="1" gradientTransform="matrix(4.4999 46.499 46.499 -4.4999 177.16 1299.2)" gradientUnits="userSpaceOnUse"><stop offset="0" stop-color="#00b4ef"/><stop offset="1" stop-color="#1b3e6e"/></linearGradient><clipPath id="clipPath930"><path d="m179 1517.5v-32.864l-6.826 7.054-1.257-1.216 8.083-8.353v-22.621h2v22.025l8.104 8.971-1.299 1.172-6.805-7.533v33.365z"/></clipPath><linearGradient id="linearGradient940" x2="1" gradientTransform="matrix(-5.5 60 60 5.5 182.94 1458.5)" gradientUnits="userSpaceOnUse"><stop offset="0" stop-color="#00b4ef"/><stop offset="1" stop-color="#1b3e6e"/></linearGradient><clipPath id="clipPath910"><path d="m179 1678.5v-32.073l-6.826 7.056-1.257-1.217 8.083-8.354v-22.412h2v21.816l8.104 8.972-1.299 1.172-6.805-7.534v32.574z"/></clipPath><linearGradient id="linearGradient920" x2="1" gradientTransform="matrix(-1.4999 50.5 50.5 1.4999 180.8 1625.5)" gradientUnits="userSpaceOnUse"><stop offset="0" stop-color="#00b4ef"/><stop offset="1" stop-color="#1b3e6e"/></linearGradient><clipPath id="clipPath890"><path d="m179 1840.5v-32.28l-6.826 7.055-1.257-1.217 8.083-8.353v-23.205h2v22.608l8.104 8.972-1.299 1.172-6.805-7.535v32.783z"/></clipPath><linearGradient id="linearGradient900" x2="1" gradientTransform="matrix(-2.5 72.5 72.5 2.5 181.21 1779.3)" gradientUnits="userSpaceOnUse"><stop offset="0" stop-color="#00b4ef"/><stop offset="1" stop-color="#1b3e6e"/></linearGradient><clipPath id="clipPath870"><path d="m138.84 2013.6c0-1.964 1.141-3.552 2.557-3.552 0.584 0 1.118 0.284 1.547 0.751 3.179-1.403 10.329-4.51 18.279-7.922 10.254-4.406 18.954-7.98 19.128-7.98v4.453c-0.348 0-2.542 0.865-23.079 9.623-7.406 3.161-11.295 4.824-13.447 5.67-0.325 1.448-1.277 2.509-2.423 2.509-1.417 0-2.562-1.59-2.562-3.552"/></clipPath><linearGradient id="linearGradient880" x2="1" gradientTransform="matrix(-24.214 13.023 13.023 24.214 158.84 2005.7)" gradientUnits="userSpaceOnUse"><stop offset="0" stop-color="#00b4ef"/><stop offset="1" stop-color="#2288c9"/></linearGradient><clipPath id="clipPath850"><path d="m138.99 2004.6c0-1.844 1.081-3.34 2.41-3.34 0.584 0 1.103 0.293 1.516 0.777 7.324-3.196 31.009-13.371 34.684-14.884 1.417-0.588 2.58-1.029 2.754-0.984v4.354c-0.174-0.061-8.337 3.349-19.227 8.009-9.392 4.018-14.783 6.28-17.51 7.355-0.358 1.209-1.212 2.055-2.212 2.055-1.33 0-2.415-1.5-2.415-3.342"/></clipPath><linearGradient id="linearGradient860" x2="1" gradientTransform="matrix(-44.494 24.146 24.146 44.494 175.58 1987.8)" gradientUnits="userSpaceOnUse"><stop offset="0" stop-color="#00b4ef"/><stop offset="1" stop-color="#1b3e6e"/></linearGradient><clipPath id="clipPath830"><path d="m138.87 1996.4c0-1.929 1.132-3.505 2.525-3.505 0.487 0 0.941 0.205 1.325 0.538 2.85-1.334 8.122-3.576 17.914-7.753 7.707-3.29 15.158-6.484 16.574-7.085 1.753-0.751 2.79-1.076 3.138-1.03v4.261l-17.394 7.323c-11.029 4.72-16.403 7.016-19.114 8.091-0.277 1.532-1.251 2.67-2.441 2.67-1.393 0-2.527-1.57-2.527-3.51"/></clipPath><linearGradient id="linearGradient840" x2="1" gradientTransform="matrix(-24.215 13.023 13.023 24.215 151.6 1992.2)" gradientUnits="userSpaceOnUse"><stop offset="0" stop-color="#00b4ef"/><stop offset="1" stop-color="#2288c9"/></linearGradient><clipPath id="clipPath810"><path d="m156.5 2030.9c-16.366-6.239-15.93-6.068-16.542-6.672-0.586-0.585-0.689-1.236-0.315-2.062 0.32-0.691 0.419-0.741 21.739-9.873 15.837-6.777 18.444-7.83 18.966-7.738v4.032s-33.131 13.647-33.547 13.81c-0.409 0.17-0.684 0.398-0.647 0.521 0.067 0.195 34.045 13.237 34.045 13.237l1.036-0.342c0.432-0.147 15.712-5.907 22.977-8.62 0.027-1.165 2.153-2.108 4.776-2.108 2.638 0 4.78 0.953 4.78 2.125 0 1.174-2.142 2.119-4.78 2.119-0.304 0-0.604-0.01-0.898-0.035-5.637 2.177-15.664 5.98-22.403 8.495-2.736 1.021-5.212 1.852-5.499 1.852-0.576 0-6.168-2.06-23.688-8.741"/></clipPath><linearGradient id="linearGradient820" x2="1" gradientTransform="matrix(-44.536 24.169 24.169 44.536 191.42 2016.9)" gradientUnits="userSpaceOnUse"><stop offset="0" stop-color="#00b4ef"/><stop offset="1" stop-color="#1b3e6e"/></linearGradient><clipPath id="clipPath790"><path d="m201.1 2017.6c-7.601-3.259-20.747-8.988-20.747-8.988v-4.032c0.697 0.097 7.923 3.098 26.635 11.187 5.302 2.288 9.697 4.163 9.748 4.163 0.049 0 0.062-3.121 0.031-6.933l-0.056-6.944-17.983-7.672c-9.881-4.219-18.2-7.721-18.375-7.781v-4.354c0.523 0.096 38.091 16.225 39.16 16.754 1.464 0.731 1.425 0.352 1.425 11.112v9.595l-0.562 0.571c-0.308 0.31-0.772 0.62-1.044 0.684-0.062 0.016-0.126 0.026-0.206 0.026-0.734 0-2.878-0.893-18.026-7.388"/></clipPath><linearGradient id="linearGradient800" x2="1" gradientTransform="matrix(-45.088 -18.47 -18.47 45.088 223.4 2015.4)" gradientUnits="userSpaceOnUse"><stop offset="0" stop-color="#00b4ef"/><stop offset="1" stop-color="#1b3e6e"/></linearGradient><clipPath id="clipPath770"><path d="m216.38 1997.1c-2.335-0.902-6.253-2.582-12.998-5.467-8.417-3.595-17.104-7.288-19.295-8.21l-3.736-1.662v-4.261c0.523 0.067 28.606 11.998 36.761 15.586 0.391-0.446 0.911-0.735 1.465-0.751 1.361-0.039 2.519 1.516 2.582 3.479 0.057 1.966-1.004 3.583-2.371 3.627h-0.049c-1.064 0-1.989-0.975-2.359-2.341"/></clipPath><linearGradient id="linearGradient780" x2="1" gradientTransform="matrix(-63.331 -15.765 -15.765 63.331 224.03 1994.6)" gradientUnits="userSpaceOnUse"><stop offset="0" stop-color="#00b4ef"/><stop offset="1" stop-color="#515aa6"/></linearGradient><clipPath id="clipPath750"><path d="m209.82 2011.8c-3.159-1.332-9.721-4.123-20.946-8.922-4.547-1.939-8.353-3.537-8.528-3.537v-4.453c0.175 0.038 7.402 3.12 16.097 6.833l14.204 6.08c0.414-0.476 0.937-0.758 1.505-0.758 1.371 0 2.477 1.588 2.477 3.55 0 1.963-1.113 3.561-2.482 3.561-1.074 0-1.985-0.986-2.327-2.354"/></clipPath><linearGradient id="linearGradient760" x2="1" gradientTransform="matrix(-63.34 -15.767 -15.767 63.34 220.08 2010.5)" gradientUnits="userSpaceOnUse"><stop offset="0" stop-color="#00b4ef"/><stop offset="1" stop-color="#515aa6"/></linearGradient><clipPath id="clipPath722"><path d="m0 2976.5h360v-2976.5h-360z"/></clipPath><clipPath id="clipPath702"><path d="m0 2976.5h360v-2976.5h-360z"/></clipPath><clipPath id="clipPath656"><path d="m0 2976.5h360v-2976.5h-360z"/></clipPath><clipPath id="clipPath626"><path d="m0 2976.5h360v-2976.5h-360z"/></clipPath><clipPath id="clipPath608"><path d="m0 2976.5h360v-2976.5h-360z"/></clipPath></defs><metadata/><g><g><g clip-path="url(#clipPath608)" transform="translate(32.613 30.991) matrix(.35278 0 0 -.35278 -51.982 688.54)"><g><path fill="#fff" d="m0 0h-5.638l-0.041 0.045c-1.306 4.282-5.227 15.077-7.233 19.352l-0.089 0.169 0.2 0.054c1.807 0.615 6.036 2.045 12.606 2.198h0.195zm-11.463 0.611-0.107 0.142c-1.823 2.435-5.592 5.485-9.241 8.437-2.418 1.955-4.7 3.8-6.17 5.271-0.215 0.214-0.5 0.335-0.809 0.335-0.131 0-0.262-0.025-0.389-0.068-0.851-0.31-1.388-0.548-1.819-0.743l-0.051-0.021c-0.669-0.302-0.918-0.413-1.845-0.507-0.343-0.033-0.648-0.214-0.836-0.501-1.104-1.646-2.391-2.485-3.825-2.485-0.473 0-0.971 0.092-1.523 0.275-0.483 0.161-0.6 0.394-0.653 0.623-0.297 1.242 1.099 3.991 2.991 5.882 2.853 2.853 4.876 4.402 7.389 4.402 1.174 0 2.474-0.335 4.088-1.058 4.5-2.01 9.021-3.658 10.3-4.117l0.079-0.028 0.03-0.078c1.592-3.869 3.731-9.872 5.044-13.812l0.045-0.134zm-1.83-4.313c-0.367-0.315-0.838-0.505-1.256-0.505-0.217 0-0.413 0.051-0.569 0.145l-0.022 0.017c-1.074 0.869-5.589 5.513-7.827 7.844-0.22 0.229-0.511 0.354-0.827 0.354-0.296 0-0.577-0.113-0.79-0.319-0.22-0.21-0.346-0.494-0.352-0.8-7e-3 -0.305 0.108-0.596 0.319-0.814l0.018-0.021c1.311-1.366 5.731-5.954 7.56-7.619l0.084-0.079-0.029-0.109c-0.169-0.638-0.752-1.013-1.083-1.18-0.526-0.264-0.995-0.319-1.295-0.319-0.421 0-0.783 0.11-0.992 0.302-0.026 0.025-0.042 0.04-0.065 0.059-1.602 1.28-5.618 5.547-6.525 6.534-0.219 0.24-0.52 0.371-0.842 0.371-0.285 0-0.562-0.108-0.775-0.301-0.462-0.427-0.494-1.153-0.067-1.617l0.029-0.031c0.671-0.721 4.117-4.404 6.118-6.197l0.095-0.087-0.049-0.122c-0.276-0.697-0.845-1.269-1.527-1.533-0.657-0.25-1.254-0.155-1.722 0.273l-0.036 0.032c-1.903 1.607-5.795 5.748-6.554 6.56-0.216 0.23-0.521 0.363-0.838 0.363-0.29 0-0.566-0.11-0.779-0.308-0.458-0.429-0.483-1.155-0.053-1.615 0.789-0.847 3.525-3.756 5.59-5.7l0.289-0.272-0.393-0.051c-0.194-0.029-0.409-0.041-0.659-0.041-0.922 0-2.566 0.618-3.365 1.148-0.95 0.624-6.836 5.019-11.87 9.235-0.72 0.607-1.954 1.895-3.041 3.029-0.542 0.566-1.064 1.03-1.486 1.403-0.195 0.174-0.372 0.332-0.525 0.475l-0.085 0.082 0.032 0.11c1.078 3.551 2.703 9.079 3.6 13.85l0.028 0.317h8.762l-0.307-0.48c-2.015-2.088-4.162-5.476-3.584-7.925 0.251-1.058 0.98-1.832 2.162-2.222 0.741-0.245 1.474-0.388 2.184-0.388 2.058 0 3.935 1.036 5.424 3.01l0.047 0.058 0.075 9e-3c0.804 0.123 1.243 0.322 1.909 0.619l0.042 0.019c0.065 0.032 0.135 0.062 0.207 0.094 0.207 0.095 0.44 0.2 0.729 0.318l0.114 0.046 0.086-0.083c1.501-1.409 3.522-3.043 5.663-4.771l0.097-0.081c3.918-3.167 8.357-6.756 9.369-8.865 0.569-1.181-0.121-1.947-0.443-2.221m-39.242 6.4-0.039-0.026h-6.472v21.738l0.265-0.016c4.35-0.34 9.127-1.257 10.838-2.088l0.136-0.058-0.01-0.079c-0.692-5.73-3.638-15.983-4.718-19.471m54.984 20.274c0 0.526-0.346 1.142-1.051 1.142-10.028 0-15.743-2.482-16.359-2.767-0.278-0.131-0.49-0.369-0.59-0.713-0.074-0.254-0.053-0.544 0.079-0.823l0.198-0.421-0.443 0.165c-0.538 0.204-1.136 0.421-1.766 0.649-1.78 0.648-3.797 1.378-5.858 2.301-1.773 0.796-3.347 1.181-4.803 1.181-2.1 0-3.991-0.503-6.322-2.294l-0.052 0.218h-10.931l0.032-0.042c0.045 0.294 0.083 0.628 0.116 0.996l0.02 0.194c0.032 0.37-0.115 0.764-0.35 0.985-1.818 1.723-8.692 2.686-14.027 3-0.024 1e-3 -0.05-5e-3 -0.078-5e-3 -0.311 0-0.768-0.092-0.978-0.292-0.24-0.223-0.561-0.523-0.561-0.812v-23.956c0-0.636 0.923-1.234 1.547-1.234h7.986c0.484 0 0.931 0.362 1.085 0.836 8e-3 0.023 0.024 0.014 0.046 0.091 0.053 0.194 0.144 0.485 0.265 0.87l0.096 0.283 0.221-0.233c0.138-0.144 0.284-0.29 0.435-0.438 0.177-0.174 0.361-0.355 0.549-0.55 1.197-1.252 2.417-2.505 3.224-3.183 4.91-4.109 10.878-8.593 12.082-9.384 0.957-0.628 3.02-1.512 4.622-1.512 1.255 0 2.228 0.284 2.899 0.845l0.085 0.072 0.105-0.04c0.904-0.35 1.928-0.34 2.888 0.034 1.143 0.442 2.115 1.341 2.67 2.466l0.066 0.13 0.142-0.029c0.294-0.063 0.601-0.095 0.913-0.095 0.776 0 1.576 0.196 2.305 0.561 1.005 0.505 1.761 1.295 2.131 2.223l0.052 0.124 0.132-5e-3c1.026-0.056 2.076 0.322 2.923 1.048 1.138 0.976 1.654 2.415 1.377 3.857l-0.023 0.123 2.422 1.625 0.075-0.24c0.096-0.31 0.179-0.651 0.252-0.947 0.042-0.16 0.077-0.202 0.106-0.314 0.136-0.489 0.585-0.892 1.103-0.892h7.986c0.727 0 0.957 1.003 0.957 1.246z" transform="translate(209.34 1910.2)"/></g></g></g><text x="-20.698" y="27.047" fill="#fff" stroke-width=".353" font-family="'Poppins Medium'" font-size="7.056" font-weight="500" transform="translate(32.613 30.991)"><tspan x="-20.698 -16.197 -11.505 -7.639 -5.72 -.971 3.559 7.425 11.291 13.084 17.352 20.308 24.979 29.883 31.802 36.332" y="27.047">Business Problem</tspan> <tspan x="-3.68 1.273 6.021 10.925 12.844 17.112 20.979 22.898" y="35.366">Analysis</tspan></text><g><g clip-path="url(#clipPath626)" transform="translate(32.613 30.991) matrix(.35278 0 0 -.35278 -51.982 688.54)"><path fill="#fff" d="m164.53 1228.6h-11.363v3.789h11.363zm-9.802 8.736-1.438 5.681c-0.096 0.483-0.054 0.982 0.099 1.452l5.128 15.736c0.064 0.246 0.228 0.454 0.447 0.578 0.22 0.124 0.481 0.157 0.724 0.087 0.105-0.025 0.205-0.073 0.293-0.138 0.338-0.225 0.492-0.641 0.382-1.034l-1.973-7.374c-1.023-0.46-1.679-1.478-1.675-2.601-4e-3 -0.25 0.029-0.501 0.094-0.743l1.733-6.468c0.065-0.244 0.226-0.454 0.445-0.581 0.221-0.126 0.483-0.16 0.727-0.095 0.245 0.065 0.455 0.227 0.581 0.446 0.126 0.218 0.161 0.482 0.096 0.727l-1.735 6.488c-0.019 0.075-0.028 0.149-0.027 0.226-4e-3 0.403 0.252 0.762 0.635 0.89 0.02 0.01 0.112 0.037 0.126 0.04 0.521 0.104 1.029-0.232 1.136-0.754l2.968-8.663c0.104-0.299 0.145-0.615 0.145-0.933v-2.407c0-0.942-0.269-1.905-0.791-2.69l-0.657-1.038h-7.243v1.023c0 0.724-0.039 1.445-0.22 2.145m10.845-3.168h-1.088c0.709 1.114 1.158 2.434 1.158 3.728v2.407c0 0.528-0.122 1.056-0.292 1.553l-2.979 8.605c-0.257 0.961-1.003 1.72-1.954 2.008l1.797 6.739c0.324 1.17-0.136 2.414-1.14 3.098-0.261 0.188-0.553 0.327-0.862 0.411-0.249 0.072-0.507 0.107-0.766 0.105-1.286 0.014-2.417-0.84-2.761-2.08l-5.104-15.686c-0.257-0.797-0.302-1.648-0.131-2.47l1.49-5.731c0.14-0.543 0.226-1.102 0.226-1.664v-1.023h-0.985c-0.529 0-1.02-0.349-1.02-0.878v-5.739c0-0.528 0.491-0.957 1.02-0.957h13.391c0.528 0 0.963 0.429 0.963 0.957v5.739c0 0.529-0.435 0.878-0.963 0.878"/><path fill="#fff" d="m195.28 1232.3h11.365v-3.789h-11.365zm9.582 2.802v-1.023h-7.207l-0.672 1.038c-0.525 0.785-0.81 1.748-0.81 2.69v2.407c0 0.318 0.06 0.634 0.162 0.933l2.982 8.663c0.11 0.522 0.62 0.858 1.137 0.754 0.016 0 0.109-0.031 0.129-0.04 0.383-0.128 0.639-0.487 0.635-0.89 2e-3 -0.077-8e-3 -0.151-0.028-0.226l-1.736-6.488c-0.139-0.511 0.164-1.035 0.674-1.173 0.512-0.137 1.037 0.167 1.174 0.676l1.73 6.468c0.067 0.242 0.098 0.493 0.096 0.743 6e-3 1.122-0.648 2.141-1.67 2.601l-1.975 7.376c-0.107 0.392 0.047 0.807 0.383 1.032 0.086 0.065 0.188 0.113 0.291 0.14 0.246 0.068 0.504 0.035 0.725-0.088 0.219-0.125 0.379-0.333 0.445-0.576l5.119-15.738c0.155-0.47 0.184-0.97 0.086-1.453l-1.429-5.679c-0.182-0.701-0.241-1.423-0.241-2.147m-11.584-1.901v-5.739c0-0.528 0.469-0.957 0.996-0.957h13.391c0.529 0 0.984 0.429 0.984 0.957v5.739c0 0.529-0.455 0.878-0.984 0.878h-1.019v1.023c0 0.563 0.103 1.124 0.242 1.67l1.492 5.732c0.17 0.82 0.135 1.67-0.123 2.468l-5.1 15.681c-0.344 1.237-1.47 2.088-2.754 2.077-0.257 0-0.515-0.033-0.763-0.108-0.309-0.082-0.602-0.221-0.862-0.408-1.004-0.683-1.461-1.931-1.136-3.102l1.798-6.736c-0.953-0.287-1.691-1.047-1.947-2.009l-3.013-8.601c-0.17-0.5-0.313-1.025-0.313-1.552v-2.407c0-1.294 0.486-2.614 1.195-3.728h-1.088c-0.527 0-0.996-0.349-0.996-0.878"/><g><path fill="#fff" d="m0 0v18.045l13.366 5.858v-17.173zm-15.153 23.903 3.789-1.672v-5.474c0-0.362 0.187-0.694 0.512-0.856l3.819-1.913c0.296-0.148 0.687-0.133 0.97 0.043 0.282 0.176 0.492 0.482 0.492 0.814v4.878l3.787-1.674v-18.041l-13.369 6.814zm6.816-0.928 4.722 2.064 1.714-0.746-4.712-2.066zm-1.244-1.582 2.003-0.835v-4.165l-2.003 0.955zm8.706 9.626 12.919-5.652-12.919-5.653-3.357 1.469 5.109 2.237c0.347 0.149 0.572 0.494 0.572 0.875s-0.225 0.724-0.572 0.877l-4.106 1.788c-0.243 0.106-0.522 0.106-0.763 0l-6.728-2.939-3.069 1.346zm15.681-4.775-15.302 6.694c-0.244 0.107-0.519 0.107-0.764 0l-15.314-6.694c-0.349-0.154-0.584-0.498-0.584-0.877v-19.133c0-0.357 0.213-0.688 0.534-0.852l15.31-7.786c0.134-0.069 0.287-0.104 0.436-0.104s0.298 0.034 0.431 0.102l15.3 7.69c0.322 0.163 0.519 0.495 0.519 0.855v19.228c0 0.379-0.217 0.723-0.566 0.877" transform="translate(180.8 1250.9)"/></g><g><path fill="#fff" d="m0 0-3.834-1.925c-0.473-0.238-0.662-0.814-0.424-1.286 0.238-0.471 0.813-0.662 1.283-0.423l3.834 1.926c0.473 0.237 0.662 0.812 0.424 1.285-0.236 0.47-0.812 0.661-1.283 0.423" transform="translate(186.2 1257.9)"/></g><g><path fill="#fff" d="m0 0c0.148 0 0.295 0.034 0.428 0.1l3.779 1.899c0.471 0.238 0.66 0.814 0.424 1.283-0.238 0.476-0.813 0.665-1.285 0.425l-3.778-1.896c-0.394-0.2-0.602-0.647-0.5-1.078s0.489-0.734 0.932-0.733" transform="translate(182.79 1258)"/></g></g></g><text x="-19.919" y="264.349" fill="#fff" stroke-width=".353" font-family="'Poppins Medium'" font-size="7.056" font-weight="500" transform="translate(32.613 30.991)"><tspan x="-19.919 -15.65 -12.694 -8.023 -3.119 1.573 6.081 8.931 10.724 15.952 20.481 25.385 27.304 31.975 36.244 38.036" y="264.349">Product Deploy &amp;</tspan> <tspan x="-4.587 1.685 6.589 8.508 13.257 16.107 21.011 22.93" y="272.667">Maintain</tspan></text><g><g clip-path="url(#clipPath656)" transform="translate(32.613 30.991) matrix(.35278 0 0 -.35278 -51.982 688.54)"><g><path fill="#fff" d="m0 0-2.934 0.419c-1.657 0.237-3.192-0.915-3.428-2.574-0.114-0.796 0.091-1.606 0.575-2.246l1.776-2.37-3.233-2.425-1.777 2.368c-1.006 1.339-2.907 1.61-4.249 0.605-0.641-0.48-1.065-1.2-1.181-1.996l-0.409-2.936-4.003 0.573 0.418 2.93c0.24 1.658-0.91 3.196-2.571 3.433-0.796 0.113-1.603-0.094-2.248-0.578l-2.371-1.776-2.425 3.237 2.369 1.775c1.339 1.007 1.611 2.906 0.606 4.246-0.481 0.644-1.199 1.069-1.997 1.182l-2.932 0.419 0.571 4.003 2.933-0.418c1.658-0.237 3.197 0.913 3.431 2.57 0.115 0.797-0.091 1.605-0.574 2.25l-1.783 2.371 3.235 2.424 1.777-2.368c1.004-1.337 2.904-1.612 4.244-0.607 0.644 0.483 1.07 1.202 1.183 1.998l0.419 2.931 4.004-0.572-0.419-2.929c-0.237-1.659 0.915-3.195 2.571-3.431 0.798-0.114 1.607 0.094 2.248 0.575l2.37 1.776 2.426-3.235-2.368-1.777c-1.341-1.004-1.612-2.906-0.608-4.243 0.483-0.644 1.2-1.071 1.998-1.185l2.932-0.417zm-41.256-15.109c-0.756-2.098-3.068-3.205-5.165-2.452-2.099 0.756-3.188 3.095-2.434 5.193 0.578 1.606 2.103 2.697 3.809 2.697h0.037c0.931-2.007 2.199-3.867 3.753-5.438m1.57-1.46c0.55-0.45 1.129-0.87 1.726-1.258 0.955-0.604 1.675-1.516 2.037-2.586l-2.166-2.165-2.101 1.45c-0.92 0.634-2.179 0.4-2.812-0.518-0.152-0.222-0.258-0.431-0.314-0.694l-0.53-2.484h-2.403l-0.528 2.481c-0.229 1.093-1.302 1.774-2.396 1.542-0.26-0.054-0.509-0.171-0.73-0.323l-2.101-1.45-1.841 1.836 1.446 2.099c0.634 0.918 0.402 2.177-0.516 2.811-0.22 0.152-0.478 0.26-0.74 0.314l-2.53 0.53v2.4l2.53 0.533c1.092 0.231 1.793 1.304 1.564 2.397-0.055 0.258-0.158 0.505-0.308 0.723l-1.446 2.103 1.84 1.841 2.104-1.45c0.916-0.633 2.178-0.399 2.81 0.519 0.152 0.221 0.258 0.469 0.314 0.732l0.177 0.839c0.16-1.165 0.43-2.31 0.802-3.426-3.327-0.397-5.702-3.415-5.305-6.743 0.395-3.324 3.414-5.697 6.74-5.301 2.002 0.237 3.755 1.455 4.677 3.248m8.01-17.389h8.023v-1.052c0-1.116-0.805-2.068-1.92-2.068h-4.043c-1.119 0-2.06 0.952-2.06 2.068zm0 4.01h8.023v-2.005h-8.023zm33.54 35.805v3e-3l-3.935 0.563c-0.552 0.077-0.936 0.59-0.859 1.141 0.037 0.267 0.181 0.507 0.397 0.667l3.175 2.384c0.447 0.335 0.54 0.969 0.202 1.415l-3.637 4.85c-0.337 0.448-0.967 0.538-1.415 0.204l-3.178-2.382c-0.446-0.338-1.077-0.252-1.417 0.193-0.164 0.215-0.232 0.49-0.194 0.758l0.562 3.881c0.08 0.553-0.306 1.098-0.857 1.098h-2e-3l-6 0.902c-0.551 0.083-1.065-0.277-1.143-0.83l-0.562-3.92c-0.078-0.553-0.593-0.931-1.145-0.853-0.265 0.038-0.503 0.183-0.666 0.397l-2.382 3.181c-0.334 0.445-0.967 0.539-1.414 0.204l-3.039-2.28c-1.375 0.145-2.76 0.146-4.135 0-8.997-1.03-16.057-8.153-16.931-17.168-0.03-0.288-0.039-0.58-0.054-0.799h-0.301c-0.481 0-0.893-0.395-0.992-0.865l-0.698-3.347-2.797 1.917c-0.402 0.275-0.943 0.221-1.289-0.124l-3.033-3.034c-0.344-0.347-0.392-0.892-0.116-1.291l1.92-2.795-3.322-0.698c-0.466-0.104-0.798-0.515-0.798-0.99v-4.045c0-0.477 0.337-0.888 0.804-0.988l3.324-0.699-1.919-2.791c-0.277-0.403-0.229-0.945 0.116-1.289l3.033-3.032c0.345-0.346 0.888-0.395 1.289-0.119l2.793 1.928 0.698-3.272c0.095-0.471 0.509-0.759 0.988-0.759h4.045c0.478 0 0.89 0.285 0.988 0.752l0.699 3.296 2.791-1.934c0.403-0.275 0.943-0.23 1.289 0.113l1.566 1.568v-2.881c0-1.438 0.668-2.764 2.006-3.481v-5.616c0-2.233 1.828-4.071 4.065-4.071h4.043c2.23 0 4.147 1.838 4.147 4.071v5.616c1.114 0.717 2.005 2.043 2.005 3.481v4.002c0 1.682 0.862 3.237 2.295 4.125 0.838 0.545 1.612 1.153 2.355 1.82l-1.358 1.507c-0.667-0.598-1.332-1.142-2.084-1.631-2.007-1.259-3.213-3.452-3.213-5.821v-4.002c0-1.117-1.01-2.027-2.125-2.027h-8.089c-1.114 0-2.041 0.91-2.041 2.027v4.086c0 2.325-1.223 4.476-3.198 5.705-8.011 5.033-10.417 15.607-5.385 23.621 3.123 4.971 8.576 7.994 14.447 8.017-0.016-0.037-0.028-0.074-0.039-0.112-0.036-0.263 0.033-0.534 0.195-0.748l2.384-3.177c0.252-0.325 0.275-0.773 0.06-1.121-0.206-0.353-0.607-0.545-1.011-0.489l-3.933 0.564c-0.553 0.079-1.063-0.304-1.143-0.858h-1e-3l-0.858-6.038c-0.078-0.552 0.305-0.954 0.858-1.177l3.933-0.528c0.552-0.079 0.938-0.574 0.86-1.128-0.041-0.264-0.18-0.496-0.395-0.657l-3.177-2.377c-0.448-0.336-0.538-0.967-0.204-1.412l3.639-4.853c0.337-0.445 0.967-0.537 1.417-0.202l3.176 2.383c0.45 0.335 1.083 0.242 1.414-0.203 0.162-0.215 0.231-0.484 0.196-0.745l-0.563-3.887c-0.08-0.551 0.304-1.098 0.857-1.098l6.003-0.904c0.048-7e-3 0.096-0.031 0.144-0.031 0.504 0 0.93 0.354 1.001 0.853l0.561 3.927c0.079 0.553 0.59 0.932 1.141 0.856 0.268-0.039 0.508-0.181 0.667-0.397l2.384-3.178c0.337-0.446 0.97-0.538 1.416-0.203l4.852 3.639c0.446 0.334 0.535 0.967 0.202 1.416l-2.381 3.178c-0.251 0.324-0.275 0.77-0.062 1.121 0.203 0.357 0.605 0.55 1.01 0.486l3.985-0.562c0.554-0.079 0.974 0.305 1.196 0.856l0.805 6.003c0.081 0.554-0.356 1.065-0.908 1.144" transform="translate(207.71 1753.6)"/></g><g><path fill="#fff" d="m0 0c-3.35 0-6.064 2.713-6.064 6.064 0 3.348 2.714 6.065 6.064 6.065s6.064-2.717 6.064-6.065c-3e-3 -3.347-2.714-6.06-6.064-6.064m0 14.15c-4.465 0-8.086-3.62-8.086-8.086 0-4.465 3.621-8.087 8.086-8.087 4.464 0 8.087 3.622 8.087 8.087-7e-3 4.463-3.623 8.082-8.087 8.086" transform="translate(192.98 1751.7)"/></g><path fill="#fff" d="m179.15 1730.8h2.004v-3.117h-2.004z"/><g><path fill="#fff" d="m0 0c-6.24 2.439-9.325 9.461-6.887 15.699 0.947 2.419 2.64 4.464 4.837 5.847l-1.081 1.708c-6.612-4.167-8.597-12.904-4.429-19.518 1.613-2.559 4.005-4.513 6.824-5.616 2.495-0.957 4.145-3.328 4.145-6.002h2.023c1e-3 3.566-2.158 6.629-5.432 7.882" transform="translate(175.69 1740.7)"/></g><path fill="#fff" d="m199.42 1737.7h6.906v-2.004h-6.906z"/><g><path fill="#fff" d="m0 0 1.294 1.555 6.066-5.054-1.295-1.553z" transform="translate(197.66 1730.9)"/></g><path fill="#fff" d="m193.19 1729.7h2.006v-7.131h-2.006z"/><g><path fill="#fff" d="m0 0 8.084 2.024 0.493-1.96-8.086-2.022z" transform="translate(150.55 1758)"/></g><g><path fill="#fff" d="m0 0 1.174 1.646 7.076-5.054-1.173-1.645z" transform="translate(152.23 1768.3)"/></g><g><path fill="#fff" d="m0 0 1.958 0.502 2.067-8.085-1.959-0.503z" transform="translate(160.89 1774.9)"/></g></g></g><text x="-13.061" y="91.578" fill="#fff" stroke-width=".353" font-family="'Poppins Medium'" font-size="7.056" font-weight="500" transform="translate(32.613 30.991)"><tspan x="-13.061 -9.117 -4.587 -.078 4.67 6.462 10.681 15.352 17.271 21.963 24.814 26.733 31.403" y="91.578" stroke-width=".353">Tech Solution</tspan></text><g><g clip-path="url(#clipPath702)" transform="translate(32.613 30.991) matrix(.35278 0 0 -.35278 -51.982 688.54)"><g><path fill="#fff" d="m0 0c-0.396 0-0.79-0.191-0.96-0.529l-3.501-6.197-7.963 13.79c-0.055 0.169-0.112 0.287-0.225 0.4l-1.242 2.205 0.395 0.17 4.631-2.259c0.339-0.168 0.677-0.226 1.016-0.226 0.791 0 1.581 0.395 1.977 1.128l2.539 4.578 3.391 0.586 7.736-13.646zm-19.2 9.579h-0.056l-2.485 4.734c-0.339 0.562-0.903 1.038-1.581 1.094l-5.195 0.973 0.733 5.199c0.114 0.677-0.112 1.415-0.564 1.868l-3.501 3.842 3.557 3.728c0.508 0.507 0.735 1.184 0.622 1.862l-0.622 5.141s0 0.054 0.057 0.111l5.138 0.904c0.622 0.111 1.243 0.509 1.582 1.129l2.541 4.574 4.631-2.258c0.622-0.339 1.411-0.373 2.031-0.033l4.688 2.114h0.057l2.485-4.656c0.339-0.562 0.903-0.999 1.524-1.056l5.139-1.007-0.734-5.193c-0.113-0.677 0.115-1.408 0.564-1.86l3.559-3.84-3.614-3.726c-0.509-0.509-0.734-1.186-0.622-1.863l0.622-5.195-5.083-0.846c-0.621-0.116-1.243-0.511-1.581-1.131l-2.541-4.575-4.63 2.26c-0.621 0.34-1.412 0.293-2.034-0.045zm-3.275-16.116-3.501 6.008c-0.226 0.338-0.565 0.529-0.96 0.529h-7.793l7.793 13.814 3.218-0.548 2.485-4.596c0.509-1.072 1.751-1.541 2.88-1.096h0.058l2.315 1.105 1.13-1.96zm33.148 6.042-8.358 14.683c0.848 0.394 1.356 1.299 1.299 2.315l-0.621 5.195 3.558 3.729c0.792 0.789 0.846 2.146 0.057 3.105l-3.558 3.839 0.735 5.255c0.112 1.126-0.68 2.255-1.809 2.483l-5.137 1.016-2.486 4.583c-0.506 1.074-1.75 1.527-2.879 1.082h-0.056l-4.744-2.212-4.631 2.254c-0.508 0.284-1.129 0.337-1.695 0.168-0.563-0.169-1.015-0.565-1.299-1.074l-2.54-4.574-5.139-0.905c-1.186-0.226-1.977-1.301-1.864-2.541l0.622-5.196-3.56-3.728c-0.789-0.791-0.845-2.144-0.055-3.106l3.557-3.839-0.734-5.251c-0.113-1.017 0.509-1.978 1.468-2.373l-8.413-14.908c-0.226-0.339-0.17-0.812 0-1.15 0.225-0.336 0.564-0.585 0.96-0.585h9.035l4.123-7.151c0.225-0.34 0.565-0.553 0.96-0.553s0.79 0.23 0.96 0.567l8.075 13.782 8.077-13.946c0.225-0.339 0.564-0.565 0.958-0.565 0.397 0 0.791 0.208 0.961 0.545l4.122 7.321h9.035c0.397 0 0.79 0.249 0.959 0.585 0.283 0.338 0.283 0.811 0.057 1.15" transform="translate(193.42 1399.5)"/></g><g><path fill="#fff" d="m0 0c-4.969 0-9.035 4.064-9.035 9.035 0 4.968 4.066 9.033 9.035 9.033 4.97 0 9.035-4.065 9.035-9.033 0-4.971-4.065-9.035-9.035-9.035m11.294 9.035c0 6.212-5.083 11.295-11.294 11.295-6.212 0-11.294-5.083-11.294-11.295s5.082-11.296 11.294-11.296c6.211 0 11.294 5.084 11.294 11.296" transform="translate(179.92 1417.6)"/></g></g></g><text x="-16.909" y="205.69" fill="#fff" stroke-width=".353" font-family="'Poppins Medium'" font-size="7.056" font-weight="500" transform="translate(32.613 30.991)"><tspan x="-16.909 -12.641 -9.685 -5.014 -.11 4.582 9.09 11.941 13.733 19.448 24.14 29.043 30.963 32.882 35.732" y="205.69" stroke-width=".353">Product Quality</tspan></text><g><g clip-path="url(#clipPath722)" transform="translate(32.613 30.991) matrix(.35278 0 0 -.35278 -51.982 688.54)"><g><path fill="#fff" d="m0 0-1.687 0.964c-0.531 0.309-1.221 0.124-1.53-0.406-0.308-0.537-0.126-1.218 0.404-1.528l1.693-0.965-7.125-4.125v8.252l1.857-1.084c0.176-0.102 0.356-0.153 0.545-0.153 0.387 0 0.754 0.202 0.962 0.561 0.31 0.535 0.122 1.215-0.412 1.526l-1.866 1.085 7.159 4.126zm-9.357 8.724c-0.62 0-1.117-0.499-1.117-1.119v-1.545l-7.146 4.129 7.146 4.124v-2.255c0-0.617 0.497-1.117 1.117-1.117 0.615 0 1.112 0.5 1.112 1.117v2.255l7.148-4.124-7.148-4.129v1.545c0 0.62-0.497 1.119-1.112 1.119m-1.117-14.784-7.173 4.125 2.253 1.308c0.534 0.31 0.71 0.99 0.403 1.525-0.311 0.535-0.96 0.717-1.493 0.411l-2.233-1.309v8.253l7.11-4.126-1.381-0.789c-0.534-0.309-0.729-0.99-0.418-1.526 0.206-0.36 0.578-0.559 0.963-0.559 0.189 0 0.404 0.048 0.582 0.151l1.387 0.788zm12.132 17.213-10.503 6.062c-0.344 0.2-0.774 0.2-1.119 0l-10.46-6.062c-0.346-0.198-0.521-0.567-0.521-0.964v-12.124c0-0.399 0.174-0.766 0.521-0.968l10.475-6.06c0.176-0.099 0.356-0.15 0.55-0.15 0.192 0 0.382 0.051 0.554 0.15l10.506 6.06c0.346 0.202 0.566 0.569 0.566 0.968v12.124c0 0.397-0.222 0.766-0.569 0.964" transform="translate(177.72 1583.8)"/></g><g><path fill="#fff" d="m0 0-11.365-6.64v13.362l2.22 1.306c0.536 0.307 0.696 0.99 0.387 1.525-0.305 0.534-1 0.719-1.537 0.41l-2.279-1.307-11.457 6.587 11.455 6.615 11.455-6.615-1.674-0.96c-0.535-0.308-0.721-0.991-0.414-1.526 0.211-0.357 0.586-0.559 0.973-0.559 0.187 0 0.357 0.047 0.533 0.149l1.703 0.989zm-13.594-6.64-11.588 6.64v13.336l11.588-6.614zm-13.689 22.462c-0.107-0.183-0.142-0.384-0.134-0.584 0-6e-3 0.01-0.013 0.01-0.022v-8.728h-25.178v38.77h30.747v-2.23h-11.402c-0.616 0-1.116-0.497-1.116-1.112 0-0.618 0.5-1.115 1.116-1.115h11.402v-17.603c0-0.617 0.496-1.12 1.113-1.12 0.62 0 1.116 0.503 1.116 1.12v17.603h6.015v-5.264c0-0.617 0.399-1.196 1.014-1.196h1.66v-2.57c0-0.359 0.17-0.696 0.461-0.906l2.213-1.594v-1.216c0-0.217-0.264-0.4-0.481-0.4h-2.345c-1.448 0-2.522-1.166-2.522-2.616v-1.246l-12.945-7.445c-0.282-0.073-0.587-0.253-0.744-0.526m15.918 29.436h8.467v-8.689h-8.467zm5.795-12.916-1.563-1.124-1.556 1.124v1.999h3.119zm7.31-16.159-13.105 7.61v1.246c0 0.215 0.078 0.389 0.293 0.389h2.345c1.448 0 2.711 1.178 2.711 2.627v1.216l2.209 1.594c0.291 0.21 0.463 0.547 0.463 0.906v2.57h1.485c0.617 0 1.189 0.579 1.189 1.196v5.264h1.826c0.617 0 1.117 0.497 1.117 1.115 0 0.615-0.5 1.112-1.117 1.112h-1.826v3.342c0 0.616-0.572 1.114-1.189 1.114h-10.721c-0.615 0-1.014-0.498-1.014-1.114v-3.342h-6.015v3.342c0 0.616-0.504 1.114-1.125 1.114h-33.053c-0.617 0-1.025-0.498-1.025-1.114v-41.099c0-0.615 0.408-1.01 1.025-1.01h26.38v-4.906c0-0.398 0.201-0.768 0.546-0.965l13.73-7.93c0.172-0.101 0.361-0.151 0.555-0.151 0.191 0 0.385 0.05 0.556 0.151l13.713 7.93c0.346 0.197 0.534 0.567 0.534 0.965v15.861c0 0.4-0.141 0.769-0.487 0.967" transform="translate(205.57 1562.1)"/></g><g><path fill="#fff" d="m0 0c-0.205 0.21-0.494 0.326-0.787 0.326-0.295 0-0.582-0.116-0.789-0.326-0.211-0.207-0.33-0.495-0.33-0.789s0.119-0.582 0.33-0.788c0.207-0.21 0.494-0.329 0.789-0.329 0.293 0 0.582 0.119 0.787 0.329 0.209 0.206 0.326 0.494 0.326 0.788s-0.117 0.582-0.326 0.789" transform="translate(200.23 1573.9)"/></g><g><path fill="#fff" d="m0 0c-0.207 0.21-0.496 0.328-0.789 0.328-0.294 0-0.584-0.118-0.789-0.328-0.209-0.208-0.329-0.493-0.329-0.789 0-0.292 0.12-0.581 0.329-0.79 0.205-0.206 0.495-0.326 0.789-0.326 0.293 0 0.582 0.12 0.789 0.326 0.208 0.209 0.328 0.498 0.328 0.79 0 0.296-0.12 0.581-0.328 0.789" transform="translate(169.09 1604.7)"/></g></g></g><text x="-16.373" y="148.197" fill="#fff" stroke-width=".353" font-family="'Poppins Medium'" font-size="7.056" font-weight="500" transform="translate(32.613 30.991)"><tspan x="-16.373 -12.105 -9.148 -4.478 .426 5.118 9.626 12.477 14.269 19.497 24.027 27.893 29.812 34.716" y="148.197" stroke-width=".353">Product Design</tspan></text><g><g clip-path="url(#clipPath750)" transform="translate(32.613 30.991) matrix(.35278 0 0 -.35278 -51.982 688.54)"><path fill="url(#linearGradient760)" d="m209.82 2011.8c-3.159-1.332-9.721-4.123-20.946-8.922-4.547-1.939-8.353-3.537-8.528-3.537v-4.453c0.175 0.038 7.402 3.12 16.097 6.833l14.204 6.08c0.414-0.476 0.937-0.758 1.505-0.758 1.371 0 2.477 1.588 2.477 3.55 0 1.963-1.113 3.561-2.482 3.561-1.074 0-1.985-0.986-2.327-2.354"/></g></g><g><g clip-path="url(#clipPath770)" transform="translate(32.613 30.991) matrix(.35278 0 0 -.35278 -51.982 688.54)"><path fill="url(#linearGradient780)" d="m216.38 1997.1c-2.335-0.902-6.253-2.582-12.998-5.467-8.417-3.595-17.104-7.288-19.295-8.21l-3.736-1.662v-4.261c0.523 0.067 28.606 11.998 36.761 15.586 0.391-0.446 0.911-0.735 1.465-0.751 1.361-0.039 2.519 1.516 2.582 3.479 0.057 1.966-1.004 3.583-2.371 3.627h-0.049c-1.064 0-1.989-0.975-2.359-2.341"/></g></g><g><g clip-path="url(#clipPath790)" transform="translate(32.613 30.991) matrix(.35278 0 0 -.35278 -51.982 688.54)"><path fill="url(#linearGradient800)" d="m201.1 2017.6c-7.601-3.259-20.747-8.988-20.747-8.988v-4.032c0.697 0.097 7.923 3.098 26.635 11.187 5.302 2.288 9.697 4.163 9.748 4.163 0.049 0 0.062-3.121 0.031-6.933l-0.056-6.944-17.983-7.672c-9.881-4.219-18.2-7.721-18.375-7.781v-4.354c0.523 0.096 38.091 16.225 39.16 16.754 1.464 0.731 1.425 0.352 1.425 11.112v9.595l-0.562 0.571c-0.308 0.31-0.772 0.62-1.044 0.684-0.062 0.016-0.126 0.026-0.206 0.026-0.734 0-2.878-0.893-18.026-7.388"/></g></g><g><g clip-path="url(#clipPath810)" transform="translate(32.613 30.991) matrix(.35278 0 0 -.35278 -51.982 688.54)"><path fill="url(#linearGradient820)" d="m156.5 2030.9c-16.366-6.239-15.93-6.068-16.542-6.672-0.586-0.585-0.689-1.236-0.315-2.062 0.32-0.691 0.419-0.741 21.739-9.873 15.837-6.777 18.444-7.83 18.966-7.738v4.032s-33.131 13.647-33.547 13.81c-0.409 0.17-0.684 0.398-0.647 0.521 0.067 0.195 34.045 13.237 34.045 13.237l1.036-0.342c0.432-0.147 15.712-5.907 22.977-8.62 0.027-1.165 2.153-2.108 4.776-2.108 2.638 0 4.78 0.953 4.78 2.125 0 1.174-2.142 2.119-4.78 2.119-0.304 0-0.604-0.01-0.898-0.035-5.637 2.177-15.664 5.98-22.403 8.495-2.736 1.021-5.212 1.852-5.499 1.852-0.576 0-6.168-2.06-23.688-8.741"/></g></g><g><g clip-path="url(#clipPath830)" transform="translate(32.613 30.991) matrix(.35278 0 0 -.35278 -51.982 688.54)"><path fill="url(#linearGradient840)" d="m138.87 1996.4c0-1.929 1.132-3.505 2.525-3.505 0.487 0 0.941 0.205 1.325 0.538 2.85-1.334 8.122-3.576 17.914-7.753 7.707-3.29 15.158-6.484 16.574-7.085 1.753-0.751 2.79-1.076 3.138-1.03v4.261l-17.394 7.323c-11.029 4.72-16.403 7.016-19.114 8.091-0.277 1.532-1.251 2.67-2.441 2.67-1.393 0-2.527-1.57-2.527-3.51"/></g></g><g><g clip-path="url(#clipPath850)" transform="translate(32.613 30.991) matrix(.35278 0 0 -.35278 -51.982 688.54)"><path fill="url(#linearGradient860)" d="m138.99 2004.6c0-1.844 1.081-3.34 2.41-3.34 0.584 0 1.103 0.293 1.516 0.777 7.324-3.196 31.009-13.371 34.684-14.884 1.417-0.588 2.58-1.029 2.754-0.984v4.354c-0.174-0.061-8.337 3.349-19.227 8.009-9.392 4.018-14.783 6.28-17.51 7.355-0.358 1.209-1.212 2.055-2.212 2.055-1.33 0-2.415-1.5-2.415-3.342"/></g></g><g><g clip-path="url(#clipPath870)" transform="translate(32.613 30.991) matrix(.35278 0 0 -.35278 -51.982 688.54)"><path fill="url(#linearGradient880)" d="m138.84 2013.6c0-1.964 1.141-3.552 2.557-3.552 0.584 0 1.118 0.284 1.547 0.751 3.179-1.403 10.329-4.51 18.279-7.922 10.254-4.406 18.954-7.98 19.128-7.98v4.453c-0.348 0-2.542 0.865-23.079 9.623-7.406 3.161-11.295 4.824-13.447 5.67-0.325 1.448-1.277 2.509-2.423 2.509-1.417 0-2.562-1.59-2.562-3.552"/></g></g><g><g clip-path="url(#clipPath890)" transform="translate(32.613 30.991) matrix(.35278 0 0 -.35278 -51.982 688.54)"><path fill="url(#linearGradient900)" d="m179 1840.5v-32.28l-6.826 7.055-1.257-1.217 8.083-8.353v-23.205h2v22.608l8.104 8.972-1.299 1.172-6.805-7.535v32.783z"/></g></g><g><g clip-path="url(#clipPath910)" transform="translate(32.613 30.991) matrix(.35278 0 0 -.35278 -51.982 688.54)"><path fill="url(#linearGradient920)" d="m179 1678.5v-32.073l-6.826 7.056-1.257-1.217 8.083-8.354v-22.412h2v21.816l8.104 8.972-1.299 1.172-6.805-7.534v32.574z"/></g></g><g><g clip-path="url(#clipPath930)" transform="translate(32.613 30.991) matrix(.35278 0 0 -.35278 -51.982 688.54)"><path fill="url(#linearGradient940)" d="m179 1517.5v-32.864l-6.826 7.054-1.257-1.216 8.083-8.353v-22.621h2v22.025l8.104 8.971-1.299 1.172-6.805-7.533v33.365z"/></g></g><g><g clip-path="url(#clipPath950)" transform="translate(32.613 30.991) matrix(.35278 0 0 -.35278 -51.982 688.54)"><path fill="url(#linearGradient960)" d="m179 1355.5v-32.655l-6.826 7.053-1.257-1.216 8.083-8.353v-22.829h2v22.234l8.104 8.97-1.299 1.172-6.805-7.533v33.157z"/></g></g><g><g clip-path="url(#clipPath970)" transform="translate(32.613 30.991) matrix(.35278 0 0 -.35278 -51.982 688.54)"><path fill="url(#linearGradient980)" d="m63 1918.5v-103.32l-8.096-8.964 1.297-1.171 6.799 7.526v-159.18l-8.096-8.963 1.297-1.172 6.799 7.527v-159.18l-8.096-8.963 1.297-1.172 6.799 7.526v-159.18l-8.096-8.963 1.297-1.172 6.799 7.526v-79.693h67v2h-65v77.205l6.833-7.06 1.257 1.217-8.09 8.359v159.28l6.833-7.06 1.257 1.217-8.09 8.359v159.28l6.833-7.061 1.257 1.217-8.09 8.36v159.28l6.833-7.062 1.257 1.217-8.09 8.361v101.9h65v2z"/></g></g></g></svg>