<svg xmlns="http://www.w3.org/2000/svg" width="551.169" height="96.884" version="1.1" viewBox="0 0 145.83 25.634"><defs><clipPath id="clipPath226"><path d="m0 1440h2560v-1440h-2560z"/></clipPath><clipPath id="clipPath298"><path d="m422.17 1218.4c-2.733-1.056-7.308-3.019-15.198-6.393-9.845-4.208-19.994-8.527-22.557-9.605l-4.345-1.944v-4.987c0.6 0.079 33.439 14.039 42.977 18.232 0.458-0.52 1.039-0.857 1.687-0.876 1.59-0.046 2.945 1.773 3.022 4.071 0.066 2.297-1.173 4.191-2.772 4.241-0.02 1e-3 -0.039 1e-3 -0.058 1e-3 -1.245 0-2.323-1.141-2.756-2.74"/></clipPath><linearGradient id="linearGradient308" x2="1" gradientTransform="matrix(-74.013 -18.423 -18.423 74.013 431.11 1215.4)" gradientUnits="userSpaceOnUse"><stop offset="0" stop-color="#00b4ef"/><stop offset="1" stop-color="#515aa6"/></linearGradient><clipPath id="clipPath318"><path d="m404.31 1242.3c-8.892-3.812-24.243-10.514-24.243-10.514v-4.716c0.838 0.113 9.242 3.623 31.133 13.086 6.204 2.675 11.32 4.869 11.377 4.869s0.078-3.651 0.039-8.109l-0.056-8.122-21.024-8.976c-11.559-4.936-21.26-9.033-21.469-9.101v-5.095c0.477 0.112 44.549 18.982 45.799 19.599 1.714 0.855 1.656 0.411 1.656 13v11.224l-0.666 0.667c-0.361 0.364-0.914 0.726-1.23 0.802-0.072 0.018-0.147 0.031-0.241 0.031-0.856 0-3.352-1.045-21.075-8.645"/></clipPath><linearGradient id="linearGradient328" x2="1" gradientTransform="matrix(-52.727 -21.599 -21.599 52.727 430.41 1239.7)" gradientUnits="userSpaceOnUse"><stop offset="0" stop-color="#00b4ef"/><stop offset="1" stop-color="#1b3e6e"/></linearGradient><clipPath id="clipPath378"><path d="m331.63 1227.2c0-2.158 1.267-3.907 2.822-3.907 0.684 0 1.296 0.341 1.78 0.908 8.568-3.739 36.289-15.642 40.588-17.411 1.658-0.688 3.057-1.204 3.249-1.151v5.095c-0.219-0.074-9.779 3.916-22.52 9.367-10.986 4.699-17.305 7.347-20.495 8.605-0.421 1.415-1.432 2.404-2.602 2.404-1.555 0-2.822-1.757-2.822-3.91"/></clipPath><linearGradient id="linearGradient388" x2="1" gradientTransform="matrix(-52.094 28.271 28.271 52.094 374.48 1207.5)" gradientUnits="userSpaceOnUse"><stop offset="0" stop-color="#00b4ef"/><stop offset="1" stop-color="#1b3e6e"/></linearGradient><clipPath id="clipPath278"><path d="m414.51 1235.6c-3.696-1.555-11.358-4.823-24.49-10.437-5.319-2.268-9.72-4.137-9.949-4.137v-5.21c0.209 0.046 8.633 3.651 18.802 7.994l16.591 7.11c0.486-0.553 1.096-0.885 1.761-0.885 1.602 0 2.897 1.856 2.897 4.154 0 2.297-1.295 4.166-2.897 4.166-1.257 0-2.316-1.153-2.715-2.755"/></clipPath><linearGradient id="linearGradient288" x2="1" gradientTransform="matrix(-74.008 -18.422 -18.422 74.008 426.48 1234)" gradientUnits="userSpaceOnUse"><stop offset="0" stop-color="#00b4ef"/><stop offset="1" stop-color="#515aa6"/></linearGradient><clipPath id="clipPath338"><path d="m352.12 1257.9c-19.144-7.299-18.632-7.099-19.348-7.806-0.685-0.685-0.799-1.447-0.361-2.41 0.374-0.81 0.505-0.868 25.444-11.549 18.527-7.93 21.48-9.16 22.214-9.054v4.716s-38.784 15.964-39.271 16.155c-0.478 0.199-0.828 0.466-0.783 0.609 0.077 0.23 39.825 15.486 39.825 15.486l1.212-0.401c0.506-0.171 18.381-6.908 26.881-10.083 0.029-1.361 2.517-2.467 5.586-2.467 3.086 0 5.592 1.115 5.592 2.488 0 1.372-2.506 2.478-5.592 2.478-0.354 0-0.708-0.01-1.049-0.041-6.596 2.546-18.326 6.996-26.208 9.94-3.2 1.192-6.097 2.164-6.433 2.164-0.673 0-7.213-2.411-27.709-10.225"/></clipPath><linearGradient id="linearGradient348" x2="1" gradientTransform="matrix(-52.095 28.271 28.271 52.095 392.97 1241.6)" gradientUnits="userSpaceOnUse"><stop offset="0" stop-color="#00b4ef"/><stop offset="1" stop-color="#1b3e6e"/></linearGradient><clipPath id="clipPath358"><path d="m331.5 1217.5c0-2.257 1.325-4.1 2.955-4.1 0.57 0 1.106 0.24 1.554 0.63 3.334-1.561 9.508-4.184 20.964-9.071 9.014-3.847 17.744-7.584 19.4-8.288 2.051-0.878 3.222-1.26 3.699-1.206v4.987l-20.375 8.566c-12.902 5.521-19.201 8.207-22.373 9.465-0.324 1.792-1.477 3.124-2.869 3.124-1.63 0-2.955-1.838-2.955-4.107"/></clipPath><linearGradient id="linearGradient368" x2="1" gradientTransform="matrix(-28.351 15.248 15.248 28.351 346.4 1212.6)" gradientUnits="userSpaceOnUse"><stop offset="0" stop-color="#00b4ef"/><stop offset="1" stop-color="#2288c9"/></linearGradient><clipPath id="clipPath398"><path d="m331.46 1237.7c0-2.297 1.338-4.155 2.994-4.155 0.684 0 1.315 0.333 1.819 0.877 3.718-1.639 12.093-5.274 21.395-9.264 11.995-5.157 22.069-9.338 22.403-9.338v5.21c-0.449 0-3.001 1.012-27.025 11.258-8.664 3.697-13.226 5.642-15.745 6.631-0.38 1.695-1.505 2.937-2.847 2.937-1.656 0-2.994-1.859-2.994-4.156"/></clipPath><linearGradient id="linearGradient408" x2="1" gradientTransform="matrix(-28.35 15.247 15.247 28.35 354.88 1228.4)" gradientUnits="userSpaceOnUse"><stop offset="0" stop-color="#00b4ef"/><stop offset="1" stop-color="#2288c9"/></linearGradient></defs><metadata/><g><g><g clip-path="url(#clipPath226)" transform="translate(-8.7299 -120.9) matrix(.35278 0 0 -.35278 -108.2 568.25)"><g><path fill="#fff" d="m0 0-5.256 2.1c-2.443 0.966-3.686 1.826-3.686 3.84 0 1.409 0.783 3.776 6.01 3.776 1.286 0 4.361-0.2 7.345-1.876l1.346 5.229c-1.951 1.182-4.951 1.898-8.035 1.898-8.078 0-13.096-3.635-13.096-9.485 0-4.085 1.88-6.491 6.486-8.307l5.381-2.098c2.463-0.975 3.955-1.718 3.955-3.844 0-1.459-0.754-3.909-5.81-3.909-3.315 0-6.431 0.871-9.289 2.59v-5.402c2.051-1.634 6.041-2.372 9.222-2.372 7.551 0 12.244 3.709 12.244 9.685 0 3.984-1.85 6.201-6.817 8.175" transform="translate(462.65 1231.6)"/></g><g><path fill="#fff" d="m0 0v15.007h8.996v4.921h-8.996v7.156h-1.168l-9.859-11.545v-0.532h4.465v-16.842c0-6.38 3.62-9.747 10.47-9.747 2.108 0 4.21 0.448 5.35 1.12v4.929c-0.952-0.298-1.976-0.477-2.855-0.477-4.308 0-6.403 1.971-6.403 6.01" transform="translate(484.24 1225.9)"/></g><g><path fill="#fff" d="m0 0c0 4.025 3.581 4.901 6.698 5.216l5.71 0.56v-3.347c0-4.937-3.319-7.521-6.596-7.521-4.286 0-5.812 2.634-5.812 5.092m5.548 22.354c-3.44 0-6.499-0.63-9.102-1.876l-1.394-5.301c2.795 1.236 5.677 1.86 8.592 1.86 5.408 0 8.764-2.328 8.764-6.074v-1.592l-5.2-0.472c-6.967-0.621-13.771-1.896-13.771-9.883 0-4.423 3.3-8.895 9.617-8.895 0.256 0 0.494 0.028 0.742 0.047l-2e-3 -0.012s5.259-0.01 8.945 4.756l0.053-4.266h6.049v20.516c0 10.384-10.174 11.192-13.293 11.192" transform="translate(504.86 1224)"/></g><g><path fill="#fff" d="m0 0c2.148 0 4.296-0.503 6.16-1.43l1.471 5.435c-1.836 1.072-4.407 1.639-7.498 1.639-8.315 0-18.024-4.256-18.024-16.249 0-12.88 11.248-16.314 17.891-16.314 3.105 0 5.905 0.743 7.449 1.515v5.312c-1.869-0.86-4.149-1.381-6.203-1.381-7.557 0-12.44 4.448-12.44 11.325 0 7.01 5.622 10.148 11.194 10.148" transform="translate(548.15 1240.8)"/></g><g><path fill="#fff" d="m0 0h-7.653l-12.684-14.784 12.456-16.334h8.149l-12.872 16.542z" transform="translate(590.58 1245.8)"/></g><path fill="#fff" d="m562.7 1214.7h6.563v45.233h-6.563z"/><g><path fill="#fff" d="m0 0c0 4.025 3.587 4.901 6.699 5.216l5.711 0.56v-3.347c0-4.937-3.316-7.521-6.599-7.521-4.284 0-5.811 2.634-5.811 5.092m5.547 22.354c-3.434 0-6.5-0.63-9.097-1.876l-1.397-5.301c2.795 1.236 5.677 1.86 8.593 1.86 5.405 0 8.764-2.328 8.764-6.074v-1.592l-5.199-0.472c-6.968-0.621-13.775-1.896-13.775-9.883 0-4.423 3.31-8.895 9.623-8.895 0.302 0 0.593 0.028 0.882 0.056 0-9e-3 -7e-3 -0.021-7e-3 -0.021s5.13-0.01 8.812 4.581l0.045-4.091h6.053v20.516c0 10.384-10.176 11.192-13.297 11.192" transform="translate(601.43 1224)"/></g><g><path fill="#fff" d="m0 0v15.007h8.992v4.921h-8.992v7.156h-1.168l-9.859-11.545v-0.532h4.465v-16.842c0-6.38 3.615-9.747 10.468-9.747 2.109 0 4.213 0.448 5.35 1.12v4.929c-0.952-0.298-1.975-0.477-2.853-0.477-4.31 0-6.403 1.971-6.403 6.01" transform="translate(636.56 1225.9)"/></g><g><path fill="#fff" d="m0 0 0.177 1.101c0.813 5.106 4.063 8.156 8.687 8.156 4.202 0 7.177-3.141 7.779-8.194l0.121-1.063zm9.191 14.441c-10.845 0-15.785-8.456-15.785-16.312 0-10.341 6.934-16.517 18.547-16.517 3.068 0 7.206 0.692 9.548 2.015v5.195c-2.38-1.215-5.577-1.955-8.632-1.955-7.139 0-11.36 2.681-12.551 7.964l-0.261 1.164h22.328c0.099 0.914 0.138 2.041 0.138 2.918 0 7.482-3.836 15.528-13.332 15.528" transform="translate(656.62 1232.2)"/></g><g><path fill="#fff" d="m0 0c2.146 0 4.292-0.503 6.159-1.432l1.467 5.437c-1.828 1.072-4.406 1.639-7.495 1.639-8.314 0-18.021-4.256-18.021-16.249 0-12.88 11.243-16.314 17.89-16.314 3.103 0 5.906 0.743 7.453 1.515v5.312c-1.87-0.86-4.154-1.381-6.204-1.381-7.561 0-12.447 4.448-12.447 11.325 0 7.01 5.626 10.148 11.198 10.148" transform="translate(703.03 1240.8)"/></g><g><path fill="#fff" d="m0 0c-0.378 0-0.736-0.029-1.101-0.062v0.02s-5.815 0.016-9.498-5.541v19.108h-6.569v-45.233h6.569v17.626c0 1.271 0.161 2.416 0.468 3.428l0.336 0.364s0.356 1.062 1.088 2.324c1.266 1.5 3.135 2.322 5.491 2.322 4.213 0 6.729-2.783 6.729-7.452v-18.612h6.565v20.78c0 6.74-3.863 10.928-10.078 10.928" transform="translate(734.74 1246.4)"/></g><path fill="#fff" d="m567.16 1228.3h6.708v5.421h-6.708z"/></g></g><g><g clip-path="url(#clipPath278)" transform="translate(-8.7299 -120.9) matrix(.35278 0 0 -.35278 -108.2 568.25)"><path fill="url(#linearGradient288)" d="m414.51 1235.6c-3.696-1.555-11.358-4.823-24.49-10.437-5.319-2.268-9.72-4.137-9.949-4.137v-5.21c0.209 0.046 8.633 3.651 18.802 7.994l16.591 7.11c0.486-0.553 1.096-0.885 1.761-0.885 1.602 0 2.897 1.856 2.897 4.154 0 2.297-1.295 4.166-2.897 4.166-1.257 0-2.316-1.153-2.715-2.755"/></g></g><g><g clip-path="url(#clipPath298)" transform="translate(-8.7299 -120.9) matrix(.35278 0 0 -.35278 -108.2 568.25)"><path fill="url(#linearGradient308)" d="m422.17 1218.4c-2.733-1.056-7.308-3.019-15.198-6.393-9.845-4.208-19.994-8.527-22.557-9.605l-4.345-1.944v-4.987c0.6 0.079 33.439 14.039 42.977 18.232 0.458-0.52 1.039-0.857 1.687-0.876 1.59-0.046 2.945 1.773 3.022 4.071 0.066 2.297-1.173 4.191-2.772 4.241-0.02 1e-3 -0.039 1e-3 -0.058 1e-3 -1.245 0-2.323-1.141-2.756-2.74"/></g></g><g><g clip-path="url(#clipPath318)" transform="translate(-8.7299 -120.9) matrix(.35278 0 0 -.35278 -108.2 568.25)"><path fill="url(#linearGradient328)" d="m404.31 1242.3c-8.892-3.812-24.243-10.514-24.243-10.514v-4.716c0.838 0.113 9.242 3.623 31.133 13.086 6.204 2.675 11.32 4.869 11.377 4.869s0.078-3.651 0.039-8.109l-0.056-8.122-21.024-8.976c-11.559-4.936-21.26-9.033-21.469-9.101v-5.095c0.477 0.112 44.549 18.982 45.799 19.599 1.714 0.855 1.656 0.411 1.656 13v11.224l-0.666 0.667c-0.361 0.364-0.914 0.726-1.23 0.802-0.072 0.018-0.147 0.031-0.241 0.031-0.856 0-3.352-1.045-21.075-8.645"/></g></g><g><g clip-path="url(#clipPath338)" transform="translate(-8.7299 -120.9) matrix(.35278 0 0 -.35278 -108.2 568.25)"><path fill="url(#linearGradient348)" d="m352.12 1257.9c-19.144-7.299-18.632-7.099-19.348-7.806-0.685-0.685-0.799-1.447-0.361-2.41 0.374-0.81 0.505-0.868 25.444-11.549 18.527-7.93 21.48-9.16 22.214-9.054v4.716s-38.784 15.964-39.271 16.155c-0.478 0.199-0.828 0.466-0.783 0.609 0.077 0.23 39.825 15.486 39.825 15.486l1.212-0.401c0.506-0.171 18.381-6.908 26.881-10.083 0.029-1.361 2.517-2.467 5.586-2.467 3.086 0 5.592 1.115 5.592 2.488 0 1.372-2.506 2.478-5.592 2.478-0.354 0-0.708-0.01-1.049-0.041-6.596 2.546-18.326 6.996-26.208 9.94-3.2 1.192-6.097 2.164-6.433 2.164-0.673 0-7.213-2.411-27.709-10.225"/></g></g><g><g clip-path="url(#clipPath358)" transform="translate(-8.7299 -120.9) matrix(.35278 0 0 -.35278 -108.2 568.25)"><path fill="url(#linearGradient368)" d="m331.5 1217.5c0-2.257 1.325-4.1 2.955-4.1 0.57 0 1.106 0.24 1.554 0.63 3.334-1.561 9.508-4.184 20.964-9.071 9.014-3.847 17.744-7.584 19.4-8.288 2.051-0.878 3.222-1.26 3.699-1.206v4.987l-20.375 8.566c-12.902 5.521-19.201 8.207-22.373 9.465-0.324 1.792-1.477 3.124-2.869 3.124-1.63 0-2.955-1.838-2.955-4.107"/></g></g><g><g clip-path="url(#clipPath378)" transform="translate(-8.7299 -120.9) matrix(.35278 0 0 -.35278 -108.2 568.25)"><path fill="url(#linearGradient388)" d="m331.63 1227.2c0-2.158 1.267-3.907 2.822-3.907 0.684 0 1.296 0.341 1.78 0.908 8.568-3.739 36.289-15.642 40.588-17.411 1.658-0.688 3.057-1.204 3.249-1.151v5.095c-0.219-0.074-9.779 3.916-22.52 9.367-10.986 4.699-17.305 7.347-20.495 8.605-0.421 1.415-1.432 2.404-2.602 2.404-1.555 0-2.822-1.757-2.822-3.91"/></g></g><g><g clip-path="url(#clipPath398)" transform="translate(-8.7299 -120.9) matrix(.35278 0 0 -.35278 -108.2 568.25)"><path fill="url(#linearGradient408)" d="m331.46 1237.7c0-2.297 1.338-4.155 2.994-4.155 0.684 0 1.315 0.333 1.819 0.877 3.718-1.639 12.093-5.274 21.395-9.264 11.995-5.157 22.069-9.338 22.403-9.338v5.21c-0.449 0-3.001 1.012-27.025 11.258-8.664 3.697-13.226 5.642-15.745 6.631-0.38 1.695-1.505 2.937-2.847 2.937-1.656 0-2.994-1.859-2.994-4.156"/></g></g></g></svg>