<?xml version="1.0" encoding="UTF-8" standalone="no"?>
<svg
   xmlns:dc="http://purl.org/dc/elements/1.1/"
   xmlns:cc="http://creativecommons.org/ns#"
   xmlns:rdf="http://www.w3.org/1999/02/22-rdf-syntax-ns#"
   xmlns:svg="http://www.w3.org/2000/svg"
   xmlns="http://www.w3.org/2000/svg"
   xmlns:sodipodi="http://sodipodi.sourceforge.net/DTD/sodipodi-0.dtd"
   xmlns:inkscape="http://www.inkscape.org/namespaces/inkscape"
   id="svg612"
   version="1.1"
   viewBox="0 0 397.14502 63.334755"
   height="63.334755mm"
   width="397.14502mm"
   sodipodi:docname="we-develop.svg"
   inkscape:version="0.92.4 5da689c313, 2019-01-14">
  <sodipodi:namedview
     pagecolor="#ffffff"
     bordercolor="#666666"
     borderopacity="1"
     objecttolerance="10"
     gridtolerance="10"
     guidetolerance="10"
     inkscape:pageopacity="0"
     inkscape:pageshadow="2"
     inkscape:window-width="1920"
     inkscape:window-height="1028"
     id="namedview33"
     showgrid="false"
     inkscape:zoom="0.15768821"
     inkscape:cx="704.50993"
     inkscape:cy="119.68772"
     inkscape:window-x="0"
     inkscape:window-y="26"
     inkscape:window-maximized="1"
     inkscape:current-layer="svg612" />
  <defs
     id="defs606" />
  <metadata
     id="metadata609">
    <rdf:RDF>
      <cc:Work
         rdf:about="">
        <dc:format>image/svg+xml</dc:format>
        <dc:type
           rdf:resource="http://purl.org/dc/dcmitype/StillImage" />
        <dc:title />
      </cc:Work>
    </rdf:RDF>
  </metadata>
  <g
     transform="translate(393.15433,-27.963575)"
     id="layer1">
    <g
       transform="matrix(0.35277777,0,0,-0.35277777,-431.89005,144.29124)"
       id="g569">
      <g
         id="g354"
         transform="translate(759.41132,280.95612)">
        <path
           d="M 0,0 C 8.219,21.293 22.049,34.966 37.049,36.891 V 3.908 C 27.049,3.735 16.053,2.754 5.725,0.99 Z M -29.879,-5.153 C -20.75,11.804 -6.105,24.74 11.779,31.695 2.475,22.469 -4.457,11.095 -8.389,-1.445 Z m 27.156,-3.284 9.713,1.871 c 9.895,1.693 20.059,2.836 30.059,3.007 V -40.128 H -7.547 c 0.258,11 1.879,21.507 4.824,31.691 m -4.824,-37.691 h 44.596 v -36.45 c -10,0.172 -20.16,1.116 -30.061,2.808 l -9.707,2.011 c -2.945,10.183 -4.57,20.631 -4.828,31.631 m -0.842,-38.563 c 3.932,-12.541 10.864,-23.914 20.168,-33.141 -17.884,6.955 -32.529,19.892 -41.658,36.849 z m 14.106,-2.435 c 10.32,-1.767 21.332,-2.752 31.332,-2.932 v -32.971 c -15,1.932 -28.826,15.604 -37.043,36.888 z m -45.059,46.998 c 0.404,10 2.289,18.041 5.604,26.338 l 22.945,3.76 c -2.557,-9.763 -3.973,-20.098 -4.217,-30.098 z m 28.549,-36.237 -22.945,4.128 c -3.315,8.296 -5.2,16.109 -5.604,26.109 h 24.332 c 0.244,-10 1.66,-20.474 4.217,-30.237 m 131.654,36.237 H 96.529 c -0.244,10 -1.66,20.534 -4.216,30.296 l 22.945,-4.157 c 3.314,-8.299 5.199,-16.139 5.603,-26.139 m 0,-6 c -0.404,-10 -2.289,-17.978 -5.603,-26.278 l -22.945,-3.791 c 2.556,9.762 3.972,20.069 4.216,30.069 z m -31.795,6 H 44.049 v 36.569 c 10,-0.171 20.375,-1.116 30.269,-2.808 l 9.813,-2.07 c 2.945,-10.181 4.678,-20.691 4.935,-31.691 m 0.84,38.683 C 85.977,11.094 79.045,22.468 69.74,31.695 87.623,24.74 102.27,11.804 111.4,-5.153 Z M 75.588,0.99 C 65.262,2.754 55.049,3.735 44.049,3.908 v 32.97 c 15,-1.932 28.93,-15.602 37.146,-36.884 z m 5.719,-87.127 c -8.219,-21.292 -22.258,-34.965 -37.258,-36.89 v 32.969 c 11,0.18 21.109,1.165 31.43,2.932 z m -37.258,3.559 v 36.45 h 45.017 c -0.257,-11 -1.878,-21.45 -4.824,-31.631 l -9.926,-1.842 c -9.898,-1.693 -20.267,-2.805 -30.267,-2.977 m 25.691,-35.254 c 9.305,9.228 16.237,20.602 20.166,33.141 l 21.494,3.708 C 102.271,-97.94 87.625,-110.876 69.74,-117.832 M 40.76,44.604 c -48.344,0 -87.672,-39.33 -87.672,-87.672 0,-48.342 39.328,-87.672 87.672,-87.672 48.344,0 87.672,39.33 87.672,87.673 C 128.379,5.221 89.049,44.551 40.76,44.604"
           style="fill:#ffffff;fill-opacity:1;fill-rule:nonzero;stroke:none"
           id="path356"
           inkscape:connector-curvature="0" />
      </g>
      <g
         id="g358"
         transform="translate(504.92882,159.88922)">
        <path
           d="m 0,0 c 21.512,0 43.02,-0.005 64.529,0.013 1.362,0.001 2.762,0.022 4.076,0.321 6.131,1.399 10.245,6.304 10.252,12.612 0.049,43.931 0.026,87.863 0.008,131.794 0,0.904 -0.109,1.829 -0.322,2.706 -1.576,6.452 -6.598,10.163 -13.752,10.164 -34.859,0.007 -69.721,0.002 -104.58,0.002 -8.387,0 -16.774,-0.026 -25.16,0.014 -3.188,0.015 -6.098,-0.74 -8.625,-2.71 -3.748,-2.925 -5.176,-6.84 -5.168,-11.533 0.049,-30.352 0.025,-60.705 0.025,-91.058 0,-12.723 -0.058,-25.447 0.055,-38.168 0.021,-2.222 0.349,-4.635 1.273,-6.614 2.461,-5.262 6.887,-7.573 12.69,-7.561 C -43.131,0.027 -21.566,0 0,0 M 87.73,147.276 V 9.994 C 87.617,9.75 87.451,9.516 87.398,9.26 85.604,0.506 80.389,-5.181 71.959,-7.983 70.955,-8.316 69.92,-8.554 68.902,-8.835 H -68.381 c -0.26,0.105 -0.512,0.256 -0.781,0.305 -8.561,1.564 -14.246,6.535 -17.258,14.624 -0.508,1.365 -0.762,2.825 -1.133,4.242 v 137.283 c 0.108,0.187 0.272,0.363 0.313,0.564 1.908,9.404 7.562,15.261 16.779,17.754 0.582,0.158 1.158,0.341 1.738,0.512 H 68.561 c 0.259,-0.105 0.509,-0.258 0.779,-0.307 8.486,-1.549 14.17,-6.451 17.197,-14.465 0.535,-1.415 0.803,-2.931 1.193,-4.401"
           style="fill:#ffffff;fill-opacity:1;fill-rule:evenodd;stroke:none"
           id="path360"
           inkscape:connector-curvature="0" />
      </g>
      <g
         id="g362"
         transform="translate(470.05192,238.76772)">
        <path
           d="m 0,0 h 0.008 c 0.004,-8.951 -0.096,-17.904 0.041,-26.854 0.078,-4.947 2.588,-8.612 6.887,-11.05 3.302,-1.874 6.929,-1.614 10.507,-1.546 7.369,0.141 13.032,5.685 13.065,13.047 C 30.584,-8.842 30.58,8.72 30.484,26.28 30.455,31.705 27.793,35.71 22.887,38.11 20.072,39.487 17.025,39.328 14,39.313 5.426,39.273 0.021,33.901 0.004,25.317 -0.014,16.878 0,8.438 0,0 m -8.848,0.021 c 0,8.61 -0.011,17.219 0.002,25.83 0.024,12.667 9.584,22.186 22.268,22.351 5.486,0.071 10.814,-0.257 15.588,-3.373 C 35.482,40.608 39.229,34.65 39.313,26.947 39.514,8.932 39.504,-9.09 39.348,-27.106 39.252,-38.48 29.561,-47.998 18.191,-48.313 c -5.08,-0.14 -10.156,-0.176 -14.839,2.303 -7.774,4.115 -11.979,10.559 -12.157,19.346 -0.181,8.891 -0.041,17.79 -0.043,26.685"
           style="fill:#ffffff;fill-opacity:1;fill-rule:evenodd;stroke:none"
           id="path364"
           inkscape:connector-curvature="0" />
      </g>
      <g
         id="g366"
         transform="translate(522.45032,212.30332)">
        <path
           d="m 0,0 h 8.871 c 0.215,-3.539 1.279,-6.758 3.902,-9.064 1.618,-1.422 3.623,-2.848 5.661,-3.267 5.812,-1.196 11.711,-1.652 16.677,2.725 2.692,2.372 4.176,5.399 4.295,8.993 0.104,3.133 0.104,6.274 0.039,9.409 -0.152,7.585 -5.709,13.087 -13.302,13.155 -3.875,0.035 -7.76,-0.122 -11.467,1.319 -8.764,3.405 -13.77,9.864 -14.487,19.144 -0.396,5.121 -0.298,10.447 0.665,15.471 1.843,9.609 10.712,16.464 20.515,16.74 5.149,0.144 10.274,0.16 14.99,-2.406 6.963,-3.787 10.922,-9.615 11.885,-17.478 0.047,-0.396 0.033,-0.798 0.029,-1.197 -0.002,-0.218 -0.039,-0.434 -0.074,-0.757 h -8.461 c -0.476,1.783 -0.715,3.622 -1.449,5.239 -1.947,4.292 -5.324,7.041 -10.049,7.505 -3.086,0.302 -6.31,0.314 -9.347,-0.24 C 13.42,64.292 9.547,59.697 9.053,53.824 8.74,50.144 8.707,46.391 9.045,42.717 c 0.65,-7.081 6.088,-11.7 13.289,-11.93 3.395,-0.109 6.896,-0.12 10.141,-0.974 C 41.896,27.334 48.248,18.81 48.271,9.094 48.281,4.827 48.455,0.506 47.891,-3.7 46.566,-13.533 37.604,-21.396 27.625,-21.821 22.316,-22.047 17.008,-22.086 12.113,-19.463 4.408,-15.333 0.564,-8.822 0,0"
           style="fill:#ffffff;fill-opacity:1;fill-rule:evenodd;stroke:none"
           id="path368"
           inkscape:connector-curvature="0" />
      </g>
      <path
         d="m 447.99512,190.52722 h -8.615 v 48.048 h 8.615 z"
         style="fill:#ffffff;fill-opacity:1;fill-rule:evenodd;stroke:none"
         id="path370"
         inkscape:connector-curvature="0" />
      <path
         d="m 447.98712,247.48022 h -8.572 v 8.611 h 8.572 z"
         style="fill:#ffffff;fill-opacity:1;fill-rule:evenodd;stroke:none"
         id="path372"
         inkscape:connector-curvature="0" />
      <g
         id="g374"
         transform="translate(286.11832,237.21492)">
        <path
           d="m 0,0 h -0.051 c 0,7.308 0.112,14.619 -0.039,21.924 -0.097,4.715 -4.722,7.981 -9.283,6.846 -3.723,-0.927 -5.783,-3.608 -5.807,-7.79 -0.049,-8.526 -0.041,-17.053 -0.035,-25.581 0.004,-5.799 -0.06,-11.602 0.104,-17.398 0.115,-4.092 4.32,-7.313 8.371,-6.676 4.125,0.648 6.691,3.603 6.726,7.966 C 0.041,-13.807 0,-6.903 0,0 m -115.754,-0.075 c 0,7.255 0.031,14.51 -0.01,21.763 -0.027,4.628 -4.586,8.186 -9.088,7.175 -3.894,-0.872 -6.195,-3.892 -6.203,-8.305 -0.021,-13.581 -0.009,-27.162 -0.002,-40.744 0,-0.577 0.047,-1.16 0.133,-1.73 0.621,-4.125 4.047,-7.089 7.889,-6.844 4.291,0.275 7.285,3.547 7.285,7.965 0.002,6.906 0,13.813 -0.004,20.72 m 92.268,36.951 c -1.147,18.718 -17.416,38.52 -42.188,38.387 -25.627,-0.138 -41.041,-21.077 -41.781,-38.387 z M -38.49,-44.167 c 3.539,0 6.888,-0.002 10.24,0 3.828,0.003 5.162,1.311 5.162,5.08 0.002,22.063 0.002,44.126 0.002,66.19 v 1.814 h -84.68 c -0.031,-0.458 -0.074,-0.799 -0.074,-1.141 0.004,-22.469 0.006,-44.938 0.026,-67.407 10e-4,-3.181 1.394,-4.52 4.605,-4.533 3.525,-0.014 7.051,-0.003 10.76,-0.003 v -2.049 c 0,-8.129 -0.037,-16.258 0.037,-24.386 0.014,-1.35 0.283,-2.804 0.842,-4.024 1.48,-3.243 4.994,-4.784 8.59,-4.008 3.334,0.722 5.837,3.819 5.861,7.497 0.055,8.361 0.029,16.722 0.035,25.082 v 1.781 h 23.258 v -2.499 c 0.006,-8.303 -0.096,-16.607 0.056,-24.907 0.1,-5.468 6.131,-8.838 11.01,-6.344 3.172,1.622 4.27,4.394 4.27,7.764 v 24.037 z m 2.845,135.893 c 1.95,-1.421 3.897,-2.841 5.997,-4.373 -2.754,-4.123 -5.508,-8.241 -8.305,-12.425 13.914,-9.789 21.506,-23.02 22.611,-39.854 1.994,0.522 3.992,1.297 6.053,1.539 C -0.148,37.684 7.768,30.767 7.832,20.987 7.93,7.116 7.959,-6.758 7.842,-20.63 7.762,-30.195 0.404,-37.082 -8.875,-36.399 c -2.088,0.153 -4.131,0.952 -6.449,1.514 0,-1.389 -0.018,-2.964 0.004,-4.538 0.068,-5.097 -1.93,-9.091 -6.604,-11.281 -1.818,-0.852 -4.006,-0.943 -6.043,-1.282 -0.84,-0.141 -1.724,-0.024 -2.791,-0.024 v -3.187 c -0.006,-5.049 -0.115,-10.102 0.008,-15.148 0.193,-7.901 -5.078,-14.696 -12.813,-16.047 -0.156,-0.027 -0.294,-0.163 -0.441,-0.249 h -4.529 c -0.315,0.119 -0.619,0.277 -0.946,0.349 -6.738,1.497 -11.648,7.212 -11.947,13.456 -0.271,5.674 -0.215,11.363 -0.297,17.045 -0.015,1.204 -0.002,2.407 -0.002,3.701 h -7.619 v -1.972 c 0,-5.397 -0.035,-10.795 0.01,-16.193 0.047,-5.524 -1.822,-10.203 -6.424,-13.353 -2.041,-1.398 -4.596,-2.045 -6.916,-3.033 h -4.181 c -2.323,0.984 -4.875,1.628 -6.92,3.019 -4.612,3.138 -6.477,7.828 -6.452,13.338 0.024,5.396 0.004,10.793 0.004,16.189 v 2.125 c -4.851,-0.206 -9.326,0.238 -12.679,4.118 -3.325,3.85 -2.713,8.526 -2.825,13.116 -1.628,-0.516 -3.072,-1.114 -4.572,-1.426 -9.447,-1.965 -18.324,5.147 -18.43,14.92 -0.123,11.43 -0.031,22.863 -0.037,34.295 0,2.379 0.088,4.762 -0.029,7.135 -0.601,12.194 11.793,20.376 22.621,14.813 0.094,-0.048 0.223,-0.022 0.545,-0.044 1.006,16.853 8.627,30.055 22.498,39.895 -2.758,4.119 -5.514,8.233 -8.303,12.397 2.131,1.535 4.176,3.006 6.219,4.477 h 0.348 c 2.82,-4.354 5.638,-8.708 8.498,-13.123 13.945,5.931 27.74,5.926 41.549,0.093 2.117,3.15 4.172,6.164 6.179,9.21 0.817,1.24 1.537,2.544 2.301,3.82 z"
           style="fill:#ffffff;fill-opacity:1;fill-rule:evenodd;stroke:none"
           id="path376"
           inkscape:connector-curvature="0" />
      </g>
      <path
         d="m 243.73012,285.58922 h -7.609 v 7.674 h 7.609 z"
         style="fill:#ffffff;fill-opacity:1;fill-rule:evenodd;stroke:none"
         id="path378"
         inkscape:connector-curvature="0" />
      <path
         d="m 197.59312,293.27422 h 7.486 v -7.691 h -7.486 z"
         style="fill:#ffffff;fill-opacity:1;fill-rule:evenodd;stroke:none"
         id="path380"
         inkscape:connector-curvature="0" />
      <g
         id="g382"
         transform="translate(1197.6886,302.28572)">
        <path
           d="m 0,0 -12.734,25.467 c -0.616,1.231 -1.85,1.995 -3.225,1.995 -0.562,0 -1.102,-0.128 -1.607,-0.379 L -43.037,14.348 c -0.861,-0.431 -1.504,-1.17 -1.809,-2.083 -0.302,-0.913 -0.234,-1.89 0.196,-2.752 0.615,-1.23 1.851,-1.994 3.226,-1.994 0.563,0 1.104,0.128 1.608,0.38 l 17.521,8.755 -4.691,-13.395 C -49.01,-59.459 -106.029,-103.692 -172.254,-109.43 l -0.416,-0.036 0.611,-7.202 0.418,0.036 c 69.057,5.983 128.508,52.109 151.457,117.513 l 4.811,13.745 8.924,-17.846 c 0.613,-1.231 1.849,-1.995 3.226,-1.995 0.563,0 1.104,0.128 1.608,0.381 C 0.162,-3.947 0.887,-1.778 0,0"
           style="fill:#ffffff;fill-opacity:1;fill-rule:nonzero;stroke:none"
           id="path384"
           inkscape:connector-curvature="0" />
      </g>
      <path
         d="m 1047.4601,157.82822 h -15 v 12 h 15 z m 7,15.397 c 0,1.99 -1.613,3.603 -3.604,3.603 h -21.792 c -1.991,0 -3.604,-1.613 -3.604,-3.603 v -18.794 c 0,-1.99 1.613,-3.603 3.604,-3.603 h 21.792 c 1.991,0 3.604,1.613 3.604,3.603 z"
         style="fill:#ffffff;fill-opacity:1;fill-rule:nonzero;stroke:none"
         id="path386"
         inkscape:connector-curvature="0" />
      <path
         d="m 1082.4601,157.82822 h -15 v 21 h 15 z m 3.766,29 h -22.284 c -1.986,0 -3.482,-1.954 -3.482,-3.939 v -28.653 c 0,-1.985 1.496,-3.408 3.482,-3.408 h 22.284 c 1.988,0 3.234,1.423 3.234,3.408 v 28.653 c 0,1.985 -1.246,3.939 -3.234,3.939"
         style="fill:#ffffff;fill-opacity:1;fill-rule:nonzero;stroke:none"
         id="path388"
         inkscape:connector-curvature="0" />
      <path
         d="m 1117.4601,157.82822 h -15 v 37 h 15 z m 7,41.397 c 0,1.99 -1.613,3.603 -3.604,3.603 h -21.792 c -1.991,0 -3.604,-1.613 -3.604,-3.603 v -44.794 c 0,-1.99 1.613,-3.603 3.604,-3.603 h 21.792 c 1.991,0 3.604,1.613 3.604,3.603 z"
         style="fill:#ffffff;fill-opacity:1;fill-rule:nonzero;stroke:none"
         id="path390"
         inkscape:connector-curvature="0" />
      <path
         d="m 1152.4601,157.82822 h -15 v 60 h 15 z m 7,63.398 c 0,1.989 -1.613,3.602 -3.604,3.602 h -21.792 c -1.991,0 -3.604,-1.613 -3.604,-3.602 v -66.796 c 0,-1.989 1.613,-3.602 3.604,-3.602 h 21.792 c 1.991,0 3.604,1.613 3.604,3.602 z"
         style="fill:#ffffff;fill-opacity:1;fill-rule:nonzero;stroke:none"
         id="path392"
         inkscape:connector-curvature="0" />
      <path
         d="m 1188.4601,157.82822 h -16 v 104 h 16 z m 6,107.767 c 0,1.785 -1.527,3.233 -3.41,3.233 h -22.18 c -1.883,0 -3.41,-1.448 -3.41,-3.233 v -111.534 c 0,-1.785 1.527,-3.233 3.41,-3.233 h 22.18 c 1.883,0 3.41,1.448 3.41,3.233 z"
         style="fill:#ffffff;fill-opacity:1;fill-rule:nonzero;stroke:none"
         id="path394"
         inkscape:connector-curvature="0" />
      <g
         id="g396"
         transform="translate(368.27062,232.94882)">
        <path
           d="m 0,0 h -11.947 v -12.066 h -6.629 V 0 h -11.889 v 6.272 h 11.889 v 12.126 h 6.629 V 6.272 H 0 Z"
           style="fill:#29a9e0;fill-opacity:1;fill-rule:nonzero;stroke:none"
           id="path398"
           inkscape:connector-curvature="0" />
      </g>
      <g
         id="g400"
         transform="translate(668.08902,232.94882)">
        <path
           d="m 0,0 h -11.947 v -12.066 h -6.629 V 0 h -11.889 v 6.272 h 11.889 v 12.126 h 6.629 V 6.272 H 0 Z"
           style="fill:#29a9e0;fill-opacity:1;fill-rule:nonzero;stroke:none"
           id="path402"
           inkscape:connector-curvature="0" />
      </g>
      <path
         d="m 972.40312,226.31822 h -31.779 v 6.212 h 31.779 z m 0,13.44 h -31.779 v 6.212 h 31.779 z"
         style="fill:#29a9e0;fill-opacity:1;fill-rule:nonzero;stroke:none"
         id="path404"
         inkscape:connector-curvature="0" />
    </g>
  </g>
</svg>
